<svg xmlns="http://www.w3.org/2000/svg" viewBox="0 0 483 527.48"><defs><style>.cls-1{fill:#f0863a;stroke-width:3px;}.cls-1,.cls-2,.cls-3,.cls-6{stroke:#000;}.cls-2,.cls-5{fill:#f0d152;}.cls-2,.cls-3,.cls-6{stroke-miterlimit:10;}.cls-3,.cls-6{fill:none;}.cls-3{stroke-width:4px;}.cls-4{fill:#80252a;}</style></defs><title>Martell-Shield</title><g id="Layer_2" data-name="Layer 2"><path class="cls-1" d="M927,122.76V328.6a314.37,314.37,0,0,1-2.28,38c-.11.93-.24,1.86-.36,2.79s-.24,1.86-.39,2.79q-.7,5.05-1.61,10c-.07.44-.15.87-.23,1.31-.15.8-.29,1.6-.45,2.39s-.34,1.8-.51,2.69l-.45,2.22-.24,1.16c-.15.71-.3,1.44-.47,2.15q-.8,3.55-1.61,7l-.58,2.32-.52,2q-1.52,5.88-3.27,11.61c-.29,1-.59,1.94-.9,2.92l-.6,1.88c-.19.63-.39,1.25-.6,1.86l-1.1,3.26c-.37,1.09-.68,2-1,3-.47,1.28-.92,2.55-1.39,3.81-.36,1-.73,2-1.11,3l-.19.49c-.43,1.14-.87,2.25-1.32,3.37s-.87,2.16-1.32,3.19a3.35,3.35,0,0,1-.18.42c-.4,1-.8,2-1.25,3s-.75,1.75-1.13,2.62l-.66,1.49c-.47,1.07-.95,2.12-1.44,3.15s-.9,2-1.36,2.93l-1,2.12c-.3.63-.6,1.25-.91,1.88-.63,1.32-1.31,2.64-2,4q-2.53,5-5.19,9.77l-2,3.57-.11.21q-2.13,3.71-4.33,7.33c-.71,1.2-1.46,2.39-2.18,3.54-.1.16-.19.31-.3.46-.55.89-1.12,1.78-1.69,2.66l-.66,1c-.65,1-1.31,2-2,3l-.13.18c-.66,1-1.32,2-2,3l-.45.67q-2.26,3.28-4.54,6.46l-.31.42c-.8,1.07-1.54,2.14-2.31,3.19s-1.66,2.23-2.5,3.32q-2.29,3-4.61,6l-.8,1c-.73.93-1.48,1.85-2.22,2.76L854,526.61l-.57.69L851,530.1q-2.83,3.32-5.72,6.53c-.75.85-1.52,1.69-2.29,2.51l-2.22,2.39q-3,3.19-5.93,6.24-2.76,2.83-5.53,5.59c-.91.91-1.84,1.82-2.76,2.71s-1.85,1.78-2.78,2.67l-2.28,2.11c-.68.65-1.36,1.28-2.05,1.91a448.64,448.64,0,0,1-61.76,47.47c-.86.55-1.73,1.1-2.58,1.6q-6.42,4.07-12.46,7.63l-2.41,1.4-2.36,1.36-2.34,1.35-2.22,1.28c-8.35,4.68-15.91,8.59-22.38,11.76l-1.61.8c-10.63,5.15-18.11,8.22-21,9.35l-.42.18-.61.23-.14.06h-.08l-.23-.1-.21,0-1.07-.42-.55-.23c-.87-.34-2-.8-3.36-1.38l-.47-.18c-1.76-.8-3.88-1.67-6.33-2.77l-1.39-.61a443.16,443.16,0,0,1-39.74-20.6c-.8-.45-1.61-.92-2.36-1.38a473.14,473.14,0,0,1-44.78-30l-2.62-2c-1-.75-2-1.52-2.95-2.29l-2.81-2.21c-6.19-4.92-12.43-10.15-18.64-15.69L558.08,566q-2.3-2.05-4.59-4.2l-1.67-1.57L550,558.54l-2-1.94c-1.12-1.07-2.24-2.16-3.34-3.26-.84-.8-1.69-1.67-2.52-2.51l-.24-.26q-1.25-1.25-2.5-2.51c-.66-.68-1.32-1.36-2-2l-2-2.07-.13-.15-2.1-2.24q-3.36-3.61-6.66-7.36c-.68-.8-1.36-1.55-2-2.35-.57-.65-1.12-1.28-1.66-1.94l-2-2.39q-4.26-5.11-8.39-10.48-1.13-1.45-2.24-2.92c-1.89-2.47-3.73-5-5.57-7.55l-1.68-2.39c-.13-.16-.24-.34-.36-.5-.59-.85-1.19-1.7-1.77-2.55-.95-1.38-1.89-2.77-2.82-4.17q-1.11-1.64-2.18-3.31l-.15-.24-2.22-3.47c-.07-.13-.15-.24-.22-.37-.71-1.14-1.41-2.27-2.1-3.4s-1.49-2.46-2.21-3.7-1.44-2.39-2.13-3.67q-4.6-8-8.77-16.47c-.35-.69-.69-1.38-1-2.08-.22-.44-.44-.89-.65-1.35-.43-.87-.8-1.75-1.25-2.63a27.17,27.17,0,0,1-1.15-2.47l-.23-.48c-.26-.58-.52-1.16-.8-1.75l-.26-.57c-.26-.58-.52-1.18-.8-1.77q-1.44-3.26-2.78-6.58c-.42-1-.8-2-1.23-3.07-.1-.26-.21-.53-.31-.8-.4-1-.8-2-1.16-3s-.68-1.82-1-2.74l-.23-.65c-.18-.45-.34-.91-.5-1.36q-1-2.69-1.89-5.44c-.21-.6-.4-1.21-.6-1.8-.26-.8-.51-1.54-.75-2.31-.14-.42-.26-.8-.39-1.22-.26-.8-.5-1.6-.75-2.39-.31-1-.61-2.06-.92-3.1-.18-.65-.39-1.28-.57-2-.37-1.28-.74-2.58-1.08-3.89-.19-.68-.37-1.35-.55-2-.13-.5-.26-1-.39-1.51-.32-1.22-.63-2.46-.92-3.7-.18-.7-.35-1.4-.52-2.11-.07-.29-.13-.57-.19-.85-.37-1.55-.71-3.11-1.07-4.69-.26-1.16-.5-2.33-.74-3.5-.14-.71-.29-1.43-.43-2.14s-.32-1.6-.47-2.45a2.13,2.13,0,0,0-.1-.47c-.15-.8-.3-1.64-.45-2.48s-.31-1.84-.47-2.77-.3-1.8-.45-2.71q-.87-5.52-1.56-11.17A314.73,314.73,0,0,1,447,328.58V122.76Z" transform="translate(-445.5 -121.26)"/></g><g id="Layer_12" data-name="Layer 12"><path class="cls-2" d="M695.58,275V238s17,5,12-14-20.08-72.5-20.08-72.5-14,53-19,72,12,15,12,15v31" transform="translate(-445.5 -121.26)"/><path class="cls-3" d="M695.58,275V238s17,5,12-14-20.08-72.5-20.08-72.5-14,53-19,72,12,15,12,15v31" transform="translate(-445.5 -121.26)"/></g><g id="Layer_7" data-name="Layer 7"><path class="cls-4" d="M783.08,400.58c1.54,1.16,7.5,5.81,4.07,20.62l-.48-.11c.5-2.32.54-5.41-2.53-6.17-7.6-1.86-16.18,9.87-22.36,1.94-8-10.23-15.2-7.22-15.47-7,0,0,10,.76,9.49,13-.4,9.37,6.37,6,9.52,10.95,1.09,1.71,7.92,14.05-7.78,23.35.47-.48,5.58-5.7,1.54-8.61-6.34-4.58-16.85,2-19.61-7.62-3.56-12.47-12.73-11.47-13.05-11.38,0,0,9.23,1.93,4.17,13.05-3.88,8.54,3.73,9,4.72,13.71,1.27,6.13-.73,11.16-11.71,21.4,0,0,2.78-5.75,0-10.16-4.16-6.62-16-4.32-14.92-14.32,1.37-12.89-5.63-14.81-6-14.85,0,0,7.72,9.43-1.14,17.84-6.8,6.45-3.41,7.64-3.25,12.5.07,2-2.26,7.84-17.5,15.61,1.29-.71,6.75-4,5.94-8.52-1.39-7.7-15.6-10.76-10.87-19.63a20,20,0,0,0,.45-17.92,6.6,6.6,0,0,0-.43-1.21c-.54-.61-.17-.11.43,1.21.61,2.38.9,7.83-6.93,12.71-6.38,4-6.83,9.1-8.5,13.67-.7,1.91-6.11,12.35-23.29,3.66,0,0,5.68,1.78,6.75-3.31,1.6-7.66-3.62-13,1.37-21,6.83-11,6.42-15,6.21-15.29,0,0-1.3,8.06-13.29,10.34-8.26,1.57-7.23,6.83-11.6,8.95-2.27,1.1-9.35,8.13-23.84-4.39.57.37,7.23,4.62,10,.48,4.35-6.5-3.74-18.57,5.82-21.66,12.34-4,11.64-12.53,11.53-12.85,0,0-2.22,8.66-13.51,4-8.67-3.58-9.26,2.32-14.51,3.26-2.58.46-7.34,1.92-20.66-8.89,1,.78,6.38,4.66,10.26,2,6.48-4.4,3.5-18.62,13.52-17.91,12.94.92,15.59-6.76,15.61-7.09,0,0-4.73,8.37-14.41-.88-5.64-5.38-9.23-2.66-14.32-2.44-5.3.23-14.68-3-13.37-18.75,0,0,.92,5.42,6.12,5.5,8.25.13,10.25-14.55,19.28-10.14,11.65,5.7,17.06,1.46,17.2,1.16,0,0-9,2-14.79-8.77-3.72-6.93-7.94-.56-13.32-7.11-1.29-1.57-9.48-8.13-1.69-23.68-.1.4-2,7.56,3,8.42,7.71,1.33,12.53-7.18,18.79-2.46,11.63,8.77,16.78,11.24,17,11,0,0-4.52-3.05-8.56-14.5-3.12-8.84-5.31-8.15-9-11.28-1.55-1.31-8.44-10.83,3.7-23.06-.37.51-4.51,6.47-.27,9.1,6.65,4.12,18.43-4.39,21.86,5.06,4.42,12.19,11.26,12.9,11.57,12.79,0,0-6-2.64-1.76-14.08,3.28-8.79-3.39-9.06-5.67-13.35-.95-1.8-4.34-9,10.16-22.14-.4.42-5.09,5.62,0,10.09,5.9,5.14,16.95,3.22,16.59,13.27-.47,13,5.61,16.18,5.94,16.19,0,0-5.53-5.08,2.71-14.09,6.34-6.92.25-9.67-.25-14.5-.21-2,1.09-8.73,16-17.62-.31.27-6.06,5.41-3.8,9.95,3.69,7.42,16.3,9.65,12.21,18.83-5.29,11.84-.56,17.23-.26,17.37,0,0-4.26-9.88,7.39-13.56,8.94-2.82,5-8.24,7-12.68.83-1.86,7-9.37,23.74-5.62,0,0-7.83,0-7.08,5.12,1.12,7.74,9.75,13.42,1.61,19.32,0,0-9.68,6.93-7.93,17.79,0,0,.8-7.78,12.79-10.11,8.57-1.67,9.25-8.85,13.67-10.12,2-.57,7.27-2.61,21.79,5.14,0,0-6.93-1.51-10.13,2.61-4.79,6.18,2,17.36-7.78,19.78-12.59,3.13-11.38,12-11.3,12.3,0,0,4.81-11.94,16.66-5.4,8.21,4.53,9.92-1.37,14.42-3.18,1.89-.76,14-2.74,16.33,13.27-.17-.7-1.89-7.22-6.15-4.74-6.76,3.93-5.56,17.38-15.51,16-12.84-1.82-15.45,11.19-15.5,11.52,0,0,7.75-12.5,16-2.27,5.89,7.3,9.87,2.34,14.72,2.35,2,0,7.5,3.66,14.78,19.39-.28-.35-5.64-6.83-10-4.24-6,3.56-9.72,13-18.42,7.92-11.14-6.45-16.56-.54-16.78-.18.3-.12,7.23-3,13.86,8.84C774.76,402.17,776.25,395.5,783.08,400.58Z" transform="translate(-445.5 -121.26)"/></g><g id="Layer_8" data-name="Layer 8"><path d="M702,304.78a6.66,6.66,0,0,1-2.52-2.63,12.27,12.27,0,0,1-1.33-3.5,18.7,18.7,0,0,1,0-7.44,25.93,25.93,0,0,1,.94-3.55c.09-.29.2-.57.3-.86l.28-.77a6.34,6.34,0,0,0,.32-1.13,3.9,3.9,0,0,0-.07-1.83,6,6,0,0,0-1.08-1.81,41.12,41.12,0,0,0-4.56-4.11,25.59,25.59,0,0,1-5.11-5.37,13.1,13.1,0,0,1-1-1.78c-.07-.16-.14-.3-.21-.48l-.2-.58a7.63,7.63,0,0,1-.24-1.19,7.29,7.29,0,0,1,.91-4.27,10.74,10.74,0,0,1,2.4-2.93,12.5,12.5,0,0,1,3-1.95,18.36,18.36,0,0,0-2.4,6,4.23,4.23,0,0,0,.24,2.34,3.28,3.28,0,0,0,.23.42l.14.19.19.26a8.49,8.49,0,0,0,.84,1,29.3,29.3,0,0,0,4.68,3.84,32,32,0,0,1,5.62,4.69,10.69,10.69,0,0,1,2.27,4,9.26,9.26,0,0,1,.08,4.83,12.21,12.21,0,0,1-.72,2.07c-.15.37-.24.54-.37.79s-.24.46-.35.7c-.44.94-.86,1.87-1.23,2.83a25.59,25.59,0,0,0-1.64,5.88,15.61,15.61,0,0,0-.14,3.11,9.32,9.32,0,0,0,.2,1.61A5.63,5.63,0,0,0,702,304.78Z" transform="translate(-445.5 -121.26)"/><path d="M675.37,304.84c-2.18-1.24-3.33-4.17-3.09-6.89a15.51,15.51,0,0,1,2.83-7.39c.36-.54.75-1.06,1.12-1.56a14.15,14.15,0,0,0,.84-1.23,6.24,6.24,0,0,0,.91-2.2,3.33,3.33,0,0,0-.25-1.79c-.28-.73-.82-1.65-1.4-2.81a11.61,11.61,0,0,1-1.37-4.38,7.76,7.76,0,0,1,.27-2.68,12.59,12.59,0,0,1,.79-2.13,19.7,19.7,0,0,1,5-6.19,32.16,32.16,0,0,1,6.13-4.15,38.36,38.36,0,0,1,6.69-2.8c-.84.89-1.72,1.69-2.56,2.52s-1.69,1.64-2.49,2.48a56.94,56.94,0,0,0-4.55,5,19.68,19.68,0,0,0-3.14,5.26,6.91,6.91,0,0,0-.33,1.21,3,3,0,0,0,0,.82,8.06,8.06,0,0,0,.91,2.25,23.64,23.64,0,0,1,1.71,3.52,8.66,8.66,0,0,1,.27,5.14,10.84,10.84,0,0,1-2.2,4.07,19.61,19.61,0,0,1-1.4,1.49c-.4.39-.8.73-1.17,1.12a16.42,16.42,0,0,0-3.61,5A7.23,7.23,0,0,0,675.37,304.84Z" transform="translate(-445.5 -121.26)"/><path d="M675.37,304.84a6.36,6.36,0,0,1-3.21-1.52,12.22,12.22,0,0,1-2.42-2.73,19.11,19.11,0,0,1-2.66-6.72,26.13,26.13,0,0,1-.46-3.53c0-.59-.06-1.18-.07-1.76a10.82,10.82,0,0,0-.08-1.24,4.36,4.36,0,0,0-2-3.3,26.07,26.07,0,0,0-5.22-2.38,26.1,26.1,0,0,1-6.41-3.26,14,14,0,0,1-1.49-1.29,11,11,0,0,1-1.27-1.64,7.24,7.24,0,0,1-1.14-4.11,6.93,6.93,0,0,1,1.3-3.69,8.2,8.2,0,0,1,2.6-2.39c-.94,2.06-1.36,4.26-.8,5.79s1.84,2.4,3.43,3.28a32.45,32.45,0,0,0,5.59,2c1,.29,2.13.64,3.27,1.06a15.86,15.86,0,0,1,3.51,1.76,9.78,9.78,0,0,1,3.13,3.31,10,10,0,0,1,1.3,4.31,16.5,16.5,0,0,1,0,2c0,.51-.09,1-.11,1.52-.05,1-.11,2-.09,3a27.09,27.09,0,0,0,.58,5.95,16,16,0,0,0,.93,2.89,9.11,9.11,0,0,0,.72,1.4A5.21,5.21,0,0,0,675.37,304.84Z" transform="translate(-445.5 -121.26)"/><path d="M650.08,314.86a5.55,5.55,0,0,1-3.19-2.19,9.26,9.26,0,0,1-1.62-3.76,18.32,18.32,0,0,1,.38-7.92l.44-1.73a12.21,12.21,0,0,0,.24-1.44,4.7,4.7,0,0,0-.17-2.19,4.51,4.51,0,0,0-1.23-1.62c-.69-.63-1.65-1.36-2.7-2.37a11,11,0,0,1-1.53-1.81,10.56,10.56,0,0,1-.64-1.11,11.4,11.4,0,0,1-.47-1.08,11.59,11.59,0,0,1-.66-4.64,16.29,16.29,0,0,1,2.82-7.8,27.7,27.7,0,0,1,5.05-5.68,35.19,35.19,0,0,1,6-4.25c-2.78,4-5.56,7.94-7.26,12a13.87,13.87,0,0,0-1.25,5.84,6.2,6.2,0,0,0,.57,2.39c.08.18.17.35.28.54a4.28,4.28,0,0,0,.29.42,8.45,8.45,0,0,0,.84.87c.68.65,1.67,1.32,2.72,2.34a11.66,11.66,0,0,1,1.57,1.83,8.55,8.55,0,0,1,1.13,2.46,9.61,9.61,0,0,1,0,4.91,15,15,0,0,1-.67,2l-.39.91-.36.75a22.58,22.58,0,0,0-1.93,6.17A7.15,7.15,0,0,0,650.08,314.86Z" transform="translate(-445.5 -121.26)"/><path d="M650.08,314.86a6.36,6.36,0,0,1-3.55-.21,12.22,12.22,0,0,1-3.27-1.62,19.12,19.12,0,0,1-5-5.24,26.17,26.17,0,0,1-1.75-3.11c-.26-.53-.5-1.07-.73-1.61l-.24-.53c-.08-.17-.18-.3-.26-.46a3.19,3.19,0,0,0-1.22-1.16,5.1,5.1,0,0,0-1.94-.49,38,38,0,0,0-6,.32,22.64,22.64,0,0,1-7.37-.27,9.47,9.47,0,0,1-3.87-1.94,5.78,5.78,0,0,1-1.47-2.06,5.25,5.25,0,0,1-.39-2.38,7.42,7.42,0,0,1,1.37-3.69,10.5,10.5,0,0,1,2.48-2.52,20.51,20.51,0,0,0-.66,3.24,6.21,6.21,0,0,0,.17,2.72,1.85,1.85,0,0,0,1.17,1.16l.47.17a3.28,3.28,0,0,0,.53.18,6.5,6.5,0,0,0,1.15.21,23.53,23.53,0,0,0,5.71-.49,31.5,31.5,0,0,1,7.13-.6,10.13,10.13,0,0,1,4.35,1.24,8.87,8.87,0,0,1,2,1.51c.27.3.54.61.78.93s.44.65.62,1a13.4,13.4,0,0,1,.88,2c.17.48.29,1,.47,1.45.33,1,.66,1.91,1.05,2.83a27.11,27.11,0,0,0,2.77,5.3,15.93,15.93,0,0,0,2,2.34,9.12,9.12,0,0,0,1.2,1A5.22,5.22,0,0,0,650.08,314.86Z" transform="translate(-445.5 -121.26)"/><path d="M630.81,336.75a11.69,11.69,0,0,1-3.14-2.11,22,22,0,0,1-2.62-2.76A35.76,35.76,0,0,1,621,325.5c-1.14-2.32-2-4.44-3.1-6.25a11.27,11.27,0,0,0-1.65-2.29,14.57,14.57,0,0,0-2.29-1.78c-.5-.34-1.06-.72-1.6-1.16-.27-.21-.53-.44-.8-.67l-.2-.17-.32-.3c-.17-.18-.33-.35-.46-.51a14,14,0,0,1-2.19-3.94,15.28,15.28,0,0,1-.56-8.43,17.49,17.49,0,0,1,3.48-7.15,22.74,22.74,0,0,1,5.63-5,44.54,44.54,0,0,0-3.33,6.35,18.56,18.56,0,0,0-1.44,6.36,12.31,12.31,0,0,0,1.24,5.77,8.85,8.85,0,0,0,1.5,2.25l.16.15h0l.15.11c.21.15.4.31.62.45l1.38.9a15.32,15.32,0,0,1,3.37,2.7,14.38,14.38,0,0,1,2.38,3.7,49.36,49.36,0,0,1,2.32,7.16c.64,2.24,1.37,4.45,2.23,6.63A28.45,28.45,0,0,0,630.81,336.75Z" transform="translate(-445.5 -121.26)"/><path d="M630.81,336.75a9.29,9.29,0,0,1-3.24-.6c-1-.32-2.06-.71-3.06-1.12a59.26,59.26,0,0,1-5.79-2.83c-1.86-1-3.69-2.15-5.44-3.34L612,328a4.62,4.62,0,0,0-.87-.46,3.36,3.36,0,0,0-1.6-.24,19,19,0,0,0-4.89,1.75,18.09,18.09,0,0,1-7,1.77,12.07,12.07,0,0,1-2-.15c-.32,0-.64-.12-1-.2a7.09,7.09,0,0,1-1.08-.38,5.34,5.34,0,0,1-3.05-3.47,7.28,7.28,0,0,1,0-3.77,10.23,10.23,0,0,1,1.39-3.09,20,20,0,0,0,.52,3.13,6.14,6.14,0,0,0,1.07,2.39,1.77,1.77,0,0,0,1.42.67h1a7.21,7.21,0,0,0,1.18-.15,18.1,18.1,0,0,0,4.92-2c.91-.46,1.86-1,3-1.45a12.5,12.5,0,0,1,3.91-1,8.75,8.75,0,0,1,4.53.87,10.54,10.54,0,0,1,1.83,1.15c.47.36.82.67,1.23,1,1.61,1.32,3.17,2.69,4.75,4.05s3.12,2.77,4.66,4.19l2.32,2.14c.39.36.78.71,1.18,1.06A5.38,5.38,0,0,0,630.81,336.75Z" transform="translate(-445.5 -121.26)"/><path d="M621.79,359.33a9.84,9.84,0,0,1-3.85.76,12.24,12.24,0,0,1-4-.62,15.9,15.9,0,0,1-6.89-4.67,20.17,20.17,0,0,1-1.3-1.63c-.21-.28-.4-.56-.59-.85s-.39-.6-.52-.77A4,4,0,0,0,603,350a3.66,3.66,0,0,0-.86-.18c-.39,0-.92,0-1.57,0a11.84,11.84,0,0,1-4.75-.94,11.09,11.09,0,0,1-3.9-3.05l-.57-.69-.62-.72a21.24,21.24,0,0,1-1.31-1.72,16.09,16.09,0,0,1-2.79-8.21,19,19,0,0,1,1.41-8.07,21.92,21.92,0,0,1,1.76-3.51,24.1,24.1,0,0,1,2.24-3.14,55.09,55.09,0,0,0-1.31,7.33,20.61,20.61,0,0,0,.37,6.79,13.43,13.43,0,0,0,2.77,5.53,15.74,15.74,0,0,0,1.08,1.17l.65.65.67.72a6.6,6.6,0,0,0,2,1.48,7,7,0,0,0,2.56.47c.6,0,1.32.09,2.16.23a7.77,7.77,0,0,1,2.69,1,8.75,8.75,0,0,1,3.41,3.91c.18.38.29.6.41.86s.23.51.36.76c.25.5.53,1,.81,1.46a15.59,15.59,0,0,0,4.47,4.88A13.7,13.7,0,0,0,621.79,359.33Z" transform="translate(-445.5 -121.26)"/><path d="M621.79,359.33a6.19,6.19,0,0,1-2.57,2.25,12,12,0,0,1-3.32,1.12,18.43,18.43,0,0,1-7-.14,27.69,27.69,0,0,1-3.32-.9c-.53-.2-1.07-.38-1.59-.6l-.76-.31-.52-.2a3.6,3.6,0,0,0-1.69-.2,3.73,3.73,0,0,0-1.53.68,27.41,27.41,0,0,0-3.9,3.93,19.84,19.84,0,0,1-5.54,4.66,9.12,9.12,0,0,1-4.11,1,7.36,7.36,0,0,1-4-1.22,6.48,6.48,0,0,1-2.45-3.09,6.65,6.65,0,0,1-.35-3.49c1.25,1.87,2.9,3.12,4.35,3.3a6,6,0,0,0,2.16-.14,4.7,4.7,0,0,0,1.88-.83,19.63,19.63,0,0,0,3.65-3.91,25.32,25.32,0,0,1,4.86-5.11,9.4,9.4,0,0,1,4.25-1.68,9,9,0,0,1,4.5.67l.93.43c.27.13.45.23.67.36.43.24.86.45,1.29.68.87.43,1.74.85,2.63,1.23a27.1,27.1,0,0,0,5.48,1.74,16,16,0,0,0,2.92.28,8.63,8.63,0,0,0,1.52-.1A5,5,0,0,0,621.79,359.33Z" transform="translate(-445.5 -121.26)"/><path d="M621.29,384.88a7.06,7.06,0,0,1-2.18,3.26,7.16,7.16,0,0,1-4,1.68,10.1,10.1,0,0,1-4.33-.59,16.93,16.93,0,0,1-3.72-1.9c-.56-.39-1.11-.78-1.63-1.2l-.39-.31-.32-.23-.63-.46a9.71,9.71,0,0,0-2.47-1.21,6.63,6.63,0,0,0-2.45-.23c-.92.07-2,.28-3.29.48a21,21,0,0,1-4.21.29,15.7,15.7,0,0,1-4.36-.87,13.63,13.63,0,0,1-6.86-5.39,15.43,15.43,0,0,1-2.36-7.82,19.18,19.18,0,0,1,.22-3.87,22.1,22.1,0,0,1,.85-3.69,40.72,40.72,0,0,0,1.56,7.09,15.07,15.07,0,0,0,3.21,5.62,10.11,10.11,0,0,0,5,2.86,10.55,10.55,0,0,0,2.86.31,19.08,19.08,0,0,0,3.09-.41,26.71,26.71,0,0,1,4-.56,11.15,11.15,0,0,1,4.76.77,13.08,13.08,0,0,1,3.83,2.5l.74.75.37.38.29.31c.37.42.76.81,1.15,1.2a11.46,11.46,0,0,0,5.19,3.24,5.81,5.81,0,0,0,3-.16A8.39,8.39,0,0,0,621.29,384.88Z" transform="translate(-445.5 -121.26)"/><path d="M621.29,384.88a8.93,8.93,0,0,1-3.51,6.37,15.75,15.75,0,0,1-6.91,3.16,21.91,21.91,0,0,1-3.72.42c-.31,0-.62,0-.92,0h-.86a6.11,6.11,0,0,0-1.12.08,3.33,3.33,0,0,0-1.55.7,6.2,6.2,0,0,0-1.26,1.73,51.35,51.35,0,0,0-2.19,5.85,19.38,19.38,0,0,1-3.65,6.78,8.17,8.17,0,0,1-3.81,2.43,7.43,7.43,0,0,1-4.35-.2,10.73,10.73,0,0,1-3.3-1.87,12.39,12.39,0,0,1-2.42-2.63,18.21,18.21,0,0,0,6.29,1.35,4.43,4.43,0,0,0,2.3-.63,4.12,4.12,0,0,0,.77-.68,5.56,5.56,0,0,0,.74-.9,19.11,19.11,0,0,0,2-5.36,36.36,36.36,0,0,1,2.27-6.86,10.8,10.8,0,0,1,2.76-3.62,8.78,8.78,0,0,1,4.56-1.93,12,12,0,0,1,2.25,0c.37,0,.54,0,.82.08s.51.06.76.08a29.11,29.11,0,0,0,3,.12,18.06,18.06,0,0,0,5.83-.9,12.41,12.41,0,0,0,2.74-1.35,8.82,8.82,0,0,0,1.29-1A7,7,0,0,0,621.29,384.88Z" transform="translate(-445.5 -121.26)"/><path d="M630.58,409.5a7.45,7.45,0,0,1-4.06,6.25,12.09,12.09,0,0,1-8,.75c-1.25-.25-2.59-.72-3.46-.93a9.87,9.87,0,0,0-2.64-.35,4,4,0,0,0-1.93.5,23.15,23.15,0,0,0-2.42,1.67,12,12,0,0,1-4,2,11.46,11.46,0,0,1-1.14.24l-.9.13a14.06,14.06,0,0,1-2.15.11,16.41,16.41,0,0,1-7.64-2.42,31.74,31.74,0,0,1-5.81-4.39,39.21,39.21,0,0,1-4.75-5.31c1.11.47,2.15,1,3.2,1.51s2.08,1,3.13,1.49a56.58,56.58,0,0,0,6.14,2.58,14.57,14.57,0,0,0,5.67,1,8.53,8.53,0,0,0,1.29-.2l.8-.17a4.56,4.56,0,0,0,.54-.16,8.22,8.22,0,0,0,2.11-1.22,19.89,19.89,0,0,1,3.32-2.17,9.42,9.42,0,0,1,4.78-.86c3.09.23,5.49,1.81,7.17,2.5a10.65,10.65,0,0,0,5.65,1A7.44,7.44,0,0,0,630.58,409.5Z" transform="translate(-445.5 -121.26)"/><path d="M630.58,409.5a9.15,9.15,0,0,1-.53,7.25,15,15,0,0,1-5,5.74,20.84,20.84,0,0,1-3.28,1.85c-.57.27-1.14.5-1.71.72a7.85,7.85,0,0,0-1.06.49,3.2,3.2,0,0,0-1.23,1.21,5.29,5.29,0,0,0-.56,2,43.56,43.56,0,0,0,.14,6.18,20.36,20.36,0,0,1-.74,7.62,10.61,10.61,0,0,1-.94,2,6.75,6.75,0,0,1-1.62,1.82,5.48,5.48,0,0,1-2.34,1.05,6.08,6.08,0,0,1-2.28,0,9.42,9.42,0,0,1-3.55-1.51,12.39,12.39,0,0,1-2.65-2.41,26.55,26.55,0,0,0,3.33.67,9.48,9.48,0,0,0,3,0,2.25,2.25,0,0,0,1.62-1c.14-.21.21-.49.39-.86a6,6,0,0,0,.31-1.13,20.4,20.4,0,0,0-.19-5.77,33.59,33.59,0,0,1-.41-7.27,10.24,10.24,0,0,1,1.35-4.4,8.63,8.63,0,0,1,3.61-3.36,13.57,13.57,0,0,1,2-.82c.48-.15,1-.26,1.45-.43a25,25,0,0,0,2.79-1,16.24,16.24,0,0,0,4.91-3.18A11.53,11.53,0,0,0,630.58,409.5Z" transform="translate(-445.5 -121.26)"/><path d="M652,428.63a9,9,0,0,1-.81,3.83,12.55,12.55,0,0,1-2.19,3.42,18,18,0,0,1-6.76,4.6c-.63.25-1.28.47-1.92.68l-1,.28c-.33.09-.53.16-.8.24a11.24,11.24,0,0,0-2.62,1.25,7.66,7.66,0,0,0-1.87,1.82c-.59.77-1.18,1.82-2.18,3a10,10,0,0,1-1.84,1.77,9.75,9.75,0,0,1-1.14.72l-.53.26-.22.11c-.45.26-1.07.62-1.7.94a18.17,18.17,0,0,1-2,.89,14.66,14.66,0,0,1-4.41.84,15,15,0,0,1-4.32-.54A20.15,20.15,0,0,1,608.5,449a28.91,28.91,0,0,1-5.31-5.54c2.25,1.18,4.45,2.32,6.68,3.22a22.91,22.91,0,0,0,6.59,1.74,10.89,10.89,0,0,0,5.86-1,12.74,12.74,0,0,0,1.33-.74l1.48-1c.17-.1.34-.21.59-.34l.18-.1.11-.07a3.91,3.91,0,0,0,.41-.31,6.87,6.87,0,0,0,.79-.85c.55-.71,1.2-1.82,2.15-3A12,12,0,0,1,633,438a14,14,0,0,1,4.3-1.38l1-.14.84-.1c.56-.08,1.12-.17,1.66-.29a19,19,0,0,0,6.26-2.35A13,13,0,0,0,652,428.63Z" transform="translate(-445.5 -121.26)"/><path d="M652,428.63a5.91,5.91,0,0,1,.62,3.11,18,18,0,0,1-.33,3.13,30.4,30.4,0,0,1-1.79,5.9c-.38.94-.81,1.86-1.26,2.77l-.69,1.34-.64,1.18a11.87,11.87,0,0,0-1.3,4.39,23.31,23.31,0,0,0,.3,5.1,31.44,31.44,0,0,1,.37,6.3,17.08,17.08,0,0,1-.58,3.34,6.58,6.58,0,0,1-2.26,3.41,5.11,5.11,0,0,1-3.76.93,6.33,6.33,0,0,1-3-1.29,9.28,9.28,0,0,0,2.79-.76,2.83,2.83,0,0,0,1.49-1.4,4.43,4.43,0,0,0,.25-1.78,13.93,13.93,0,0,0,0-2.48,42.83,42.83,0,0,0-1-5.32,23,23,0,0,1-.59-6.56,15.71,15.71,0,0,1,2.18-6.71l.45-.72c.15-.24.27-.41.41-.61l.82-1.17,1.63-2.33c1.08-1.56,2.18-3.1,3.22-4.69.52-.8,1-1.6,1.51-2.43a12.75,12.75,0,0,0,.68-1.28A3.84,3.84,0,0,0,652,428.63Z" transform="translate(-445.5 -121.26)"/><path d="M675.92,437a8.74,8.74,0,0,1,1.23,7.91,15.18,15.18,0,0,1-4.83,6.93c-.52.45-1.09.89-1.61,1.28s-.87.67-1.24,1a12.9,12.9,0,0,0-2,2.29,21.13,21.13,0,0,0-2.65,5.87c-.19.58-.38,1.18-.61,1.8l-.35.94-.18.48c-.08.21-.18.44-.27.63a13.74,13.74,0,0,1-2.78,3.79,13.39,13.39,0,0,1-8.17,3.67,17.59,17.59,0,0,1-8.14-1.36,25.91,25.91,0,0,1-6.66-4,56,56,0,0,0,7.33,1.41,18.33,18.33,0,0,0,6.75-.38,9.72,9.72,0,0,0,5-3.1,8.85,8.85,0,0,0,1.46-2.37c0-.1.06-.15.09-.24l.13-.41.25-.84c.16-.57.33-1.17.52-1.78a20.65,20.65,0,0,1,3.77-7.63,15.66,15.66,0,0,1,3.29-3c.59-.43,1.22-.76,1.83-1.12s1-.53,1.5-.83a15.07,15.07,0,0,0,4.91-4.3A9.25,9.25,0,0,0,675.92,437Z" transform="translate(-445.5 -121.26)"/><path d="M675.92,437l-.2-.12-.09,0s0,0,0,0,.15-.1.13-.11l0,0,.29.33c.2.23.4.46.6.7q.56.73,1.07,1.51a17.58,17.58,0,0,1,1.65,3.38,18.17,18.17,0,0,1,1,7.67,19.5,19.5,0,0,1-.73,3.91c-.2.64-.41,1.26-.66,1.88-.13.31-.25.61-.39.92l-.21.44-.12.29a3.43,3.43,0,0,0,.32,3.75,28.33,28.33,0,0,0,4.31,4.44,22.68,22.68,0,0,1,5,6,10.46,10.46,0,0,1,.8,2.13,9.39,9.39,0,0,1,.22,1.15,7.58,7.58,0,0,1,0,1.25,7.24,7.24,0,0,1-1.8,4.22,11.65,11.65,0,0,1-6.65,3.64,17.55,17.55,0,0,0,3.88-5.41c.69-1.87.2-3-.78-4.49a23.68,23.68,0,0,0-4.47-4.19,26.52,26.52,0,0,1-5.55-5.48,9,9,0,0,1-.56-9.54l.26-.51.19-.34c.13-.22.25-.44.37-.66.24-.45.46-.9.66-1.37a20.32,20.32,0,0,0,1-2.87,22.26,22.26,0,0,0,.76-6.28,29.29,29.29,0,0,0-.27-3.36q-.11-.86-.29-1.72l-.17-.88-.09-.46v-.08s0-.19.15-.14,0,0,.05,0a.71.71,0,0,1,.06.11Z" transform="translate(-445.5 -121.26)"/><path d="M702.72,438.33a12.73,12.73,0,0,1,2.5,2.84,13.39,13.39,0,0,1,1.7,3.54,12.33,12.33,0,0,1-.32,8.25,14.69,14.69,0,0,1-2.12,3.68c-.21.29-.43.55-.66.81l-.65.74c-.37.43-.73.87-1.05,1.3a12,12,0,0,0-1.55,2.39,3.18,3.18,0,0,0-.23.82,2.64,2.64,0,0,0,.07.84,33.38,33.38,0,0,1,.75,3.74c0,.38.06.77.06,1.16,0,.08,0,.23,0,.39l0,.45c0,.29-.08.51-.13.77a9.21,9.21,0,0,1-1,2.39,15.24,15.24,0,0,1-2.68,3.4,25.68,25.68,0,0,1-3.07,2.54,36.75,36.75,0,0,1-6.67,3.67,41.84,41.84,0,0,1-7.1,2.35c3.77-3.27,7.62-6.22,10.82-9.52a19.11,19.11,0,0,0,3.75-5,3.47,3.47,0,0,0,.31-1s0-.11,0-.13h0s0,0,0-.07-.05-.44-.09-.66c-.09-.44-.19-.89-.33-1.42s-.34-1.15-.49-2a8.51,8.51,0,0,1-.07-2.78,7.94,7.94,0,0,1,.9-2.63,14.21,14.21,0,0,1,2.76-3.46c.49-.47,1-.89,1.5-1.3l.64-.54a6.88,6.88,0,0,0,.58-.52,12.87,12.87,0,0,0,1.94-2.34,10.52,10.52,0,0,0,1.6-5.94A17.71,17.71,0,0,0,702.72,438.33Z" transform="translate(-445.5 -121.26)"/><path d="M702.72,438.33c2.29-.14,4.54,1.38,6,3.31a14.9,14.9,0,0,1,2.63,6.61,22.33,22.33,0,0,1,.26,3.45c0,.57,0,1.14,0,1.71a9.91,9.91,0,0,0,0,1.18,3.7,3.7,0,0,0,1.62,3,30.19,30.19,0,0,0,4.93,2.54,17.94,17.94,0,0,1,6,4,9.14,9.14,0,0,1,2,3.46,9.25,9.25,0,0,1,.33,3.8,11.09,11.09,0,0,1-2.81,6.17,18,18,0,0,0-.38-6,7.47,7.47,0,0,0-1-2.28,8.34,8.34,0,0,0-1.55-1.65,17.32,17.32,0,0,0-4.74-2.31,25.41,25.41,0,0,1-6.29-3,9.18,9.18,0,0,1-3.91-7.67,15.58,15.58,0,0,1,.12-2c.06-.47.16-.95.21-1.42.12-.94.22-1.88.25-2.81a17.5,17.5,0,0,0-.44-5.45A8.53,8.53,0,0,0,702.72,438.33Z" transform="translate(-445.5 -121.26)"/><path d="M726.42,429.5a7.37,7.37,0,0,1,3.73.94,7.23,7.23,0,0,1,2.95,3,9.41,9.41,0,0,1,1,4.25,15.17,15.17,0,0,1-.59,4.11c-.17.65-.41,1.31-.6,1.88a11.06,11.06,0,0,0-.39,1.42,4.65,4.65,0,0,0,0,2.22A4,4,0,0,0,733.5,449c.62.67,1.55,1.43,2.55,2.57a9.29,9.29,0,0,1,1.43,2.09A8.54,8.54,0,0,1,738,455l.16.7.08.52a15.34,15.34,0,0,1,.09,4.31,15.75,15.75,0,0,1-3.3,7.63,39.28,39.28,0,0,1-11.41,9.52c2.7-4.08,5.68-7.93,7.68-11.87.26-.49.44-1,.67-1.46a15.17,15.17,0,0,0,.49-1.45,9.57,9.57,0,0,0,.43-2.81,10.71,10.71,0,0,0-.32-2.84l-.07-.37c0-.07,0-.11-.06-.17a3.08,3.08,0,0,0-.17-.33,6.26,6.26,0,0,0-.65-.83c-.59-.65-1.53-1.41-2.52-2.52a10.23,10.23,0,0,1-1.43-2,8.39,8.39,0,0,1-.89-2.59,9.57,9.57,0,0,1,.57-4.87,16.52,16.52,0,0,1,.88-1.94c.27-.53.54-1,.76-1.44a10.11,10.11,0,0,0,1.29-5.69,5.86,5.86,0,0,0-1.19-2.74A9.19,9.19,0,0,0,726.42,429.5Z" transform="translate(-445.5 -121.26)"/><path d="M726.42,429.5a7.77,7.77,0,0,1,3.4-.62,10.48,10.48,0,0,1,3.55.71,13.38,13.38,0,0,1,5.83,4.55,18.1,18.1,0,0,1,1.91,3.14c.27.55.48,1.1.72,1.66l.55,1.51a5.55,5.55,0,0,0,1,1.77,3.33,3.33,0,0,0,1.43.92,19.06,19.06,0,0,0,5.37.62,22.84,22.84,0,0,1,7.13,1.12,12,12,0,0,1,1.84.9,8.27,8.27,0,0,1,.86.58l.41.32.43.42a5.55,5.55,0,0,1,1.32,2.19,4.82,4.82,0,0,1,.1,2.47,7,7,0,0,1-2,3.39,10.45,10.45,0,0,1-2.83,2,21.19,21.19,0,0,0,1.17-3,5.54,5.54,0,0,0,.26-2.61c-.18-.68-.49-.8-1-1.06l-.2-.09-.26-.12A4,4,0,0,0,757,450a7.2,7.2,0,0,0-1.14-.33,24.61,24.61,0,0,0-5.65-.17,20.07,20.07,0,0,1-7.39-.74,9.1,9.1,0,0,1-3.86-2.64,10.58,10.58,0,0,1-2-3.85c-.23-.73-.3-1.06-.42-1.56s-.25-.92-.41-1.36a19.49,19.49,0,0,0-1-2.61,13.78,13.78,0,0,0-3.23-4.46A12,12,0,0,0,726.42,429.5Z" transform="translate(-445.5 -121.26)"/><path d="M746.31,409.85a10.17,10.17,0,0,1,7.78,2.5,13,13,0,0,1,4,7.82,20.13,20.13,0,0,1,.22,2.16l.06,1c0,.28,0,.54.08.8a4.93,4.93,0,0,0,.75,2.29,3.66,3.66,0,0,0,1.7,1.05,20.88,20.88,0,0,1,3.94,1.79,8.9,8.9,0,0,1,2.09,1.83,10.26,10.26,0,0,1,.81,1.13c.24.38.41.71.58,1.05a19.77,19.77,0,0,1,1.48,4.22,16.34,16.34,0,0,1-.42,8.86,15.89,15.89,0,0,1-4.88,7,18.69,18.69,0,0,1-3.37,2.27,21.7,21.7,0,0,1-3.64,1.57,35.13,35.13,0,0,0,5-5.65,15.39,15.39,0,0,0,2.61-6.28,13.52,13.52,0,0,0-.6-6.36,14.84,14.84,0,0,0-1.31-2.93c-.13-.22-.26-.45-.38-.61a4.48,4.48,0,0,0-.34-.4,4.74,4.74,0,0,0-.84-.65,29.63,29.63,0,0,0-3.08-1.33,10.44,10.44,0,0,1-2.26-1.25,7.76,7.76,0,0,1-2-2.28,8.3,8.3,0,0,1-1-2.66,10.64,10.64,0,0,1-.18-2.43c.06-1.65.27-2.62.27-3.76a10.42,10.42,0,0,0-7.1-10.7Z" transform="translate(-445.5 -121.26)"/><path d="M746.31,409.85a6.75,6.75,0,0,1,3.23-1.5,10.65,10.65,0,0,1,3.71,0,15.86,15.86,0,0,1,6.78,3,22,22,0,0,1,2.74,2.4c.43.43.83.87,1.22,1.32a7.76,7.76,0,0,0,.81.81,3.2,3.2,0,0,0,1.52.75,5.06,5.06,0,0,0,2-.12,37.19,37.19,0,0,0,5.57-2.14,22.88,22.88,0,0,1,7.1-2,11.37,11.37,0,0,1,2.12.07,7.79,7.79,0,0,1,1.07.2l.53.15.57.23a5.47,5.47,0,0,1,2.09,1.6,4.94,4.94,0,0,1,1,2.31,7.3,7.3,0,0,1-.6,3.91,11,11,0,0,1-1.9,3,22.83,22.83,0,0,0,0-3.32,6,6,0,0,0-.71-2.62,1.38,1.38,0,0,0-1.28-.67h-.49a3.43,3.43,0,0,0-.56,0,6.68,6.68,0,0,0-1.16.16,23.88,23.88,0,0,0-5.3,2.24,31.13,31.13,0,0,1-6.62,2.78,10.13,10.13,0,0,1-4.54.14,8.93,8.93,0,0,1-2.34-.85,10,10,0,0,1-1.91-1.4,13.48,13.48,0,0,1-1.42-1.6c-.3-.4-.57-.82-.88-1.21a28.77,28.77,0,0,0-1.88-2.27,18.58,18.58,0,0,0-4.44-3.71,12.26,12.26,0,0,0-2.75-1.17,8.41,8.41,0,0,0-1.54-.32A6.45,6.45,0,0,0,746.31,409.85Z" transform="translate(-445.5 -121.26)"/><path d="M756.29,385.17c2.11-1.45,5.2-1.3,7.67-.21a17.76,17.76,0,0,1,6.29,4.93,36.47,36.47,0,0,1,2.3,3.1,11.73,11.73,0,0,0,1.87,2.16,1.48,1.48,0,0,0,.58.31,3.26,3.26,0,0,0,.76,0,13.72,13.72,0,0,1,4.38.31,12.21,12.21,0,0,1,4.15,2.08,14.67,14.67,0,0,1,1.71,1.43,13.4,13.4,0,0,1,1.48,1.75,15.74,15.74,0,0,1,2.71,8,27.1,27.1,0,0,1-3.68,14.69c.17-4.95.31-9.79-.79-14a13.16,13.16,0,0,0-2.63-5.33,9.1,9.1,0,0,0-2.11-1.76,8.38,8.38,0,0,0-2.35-1.08,10.23,10.23,0,0,0-2.84-.16,7.92,7.92,0,0,1-2.81-.51,6.83,6.83,0,0,1-2.44-1.66,13.76,13.76,0,0,1-2.42-3.67c-.54-1.11-1-2.07-1.56-3.05a19.16,19.16,0,0,0-4-5.16A8.36,8.36,0,0,0,756.29,385.17Z" transform="translate(-445.5 -121.26)"/><path d="M756.29,385.17a8.46,8.46,0,0,1,5.53-4.33,14.7,14.7,0,0,1,7.36,0,21,21,0,0,1,3.43,1.14c.55.23,1.09.48,1.62.75l.66.33a4.78,4.78,0,0,0,.57.26,6.91,6.91,0,0,0,2.1.52,4.76,4.76,0,0,0,1.87-.31,10.05,10.05,0,0,0,2.07-1.2c.73-.54,1.47-1.19,2.26-1.87a38.18,38.18,0,0,1,5.36-4.28c.27-.16.54-.32.82-.47l.43-.22.56-.24a6.27,6.27,0,0,1,2.38-.4,7.27,7.27,0,0,1,3.91,1.4,11.75,11.75,0,0,1,2.56,2.52,13.21,13.21,0,0,1,1.72,3,21.49,21.49,0,0,0-5.63-2.76,4.25,4.25,0,0,0-2.32-.08,2.24,2.24,0,0,0-.74.39l-.16.14-.25.21c-.18.13-.35.29-.52.43-1.37,1.23-2.68,2.81-4.21,4.44a26.91,26.91,0,0,1-2.57,2.45,13.56,13.56,0,0,1-3.47,2.13,9.79,9.79,0,0,1-4.47.72,11.21,11.21,0,0,1-4.13-1.15,9.44,9.44,0,0,1-.88-.46l-.77-.45c-.41-.27-.82-.53-1.25-.77a28.3,28.3,0,0,0-2.55-1.34,16.42,16.42,0,0,0-5.4-1.56A10.33,10.33,0,0,0,756.29,385.17Z" transform="translate(-445.5 -121.26)"/><path d="M756,362.19a14.71,14.71,0,0,1,1.88-3.48,12.55,12.55,0,0,1,2.9-3,8.41,8.41,0,0,1,9-.7,13.77,13.77,0,0,1,3.64,2.73c.57.57.9.94,1.31,1.3a13.52,13.52,0,0,0,1.19,1c1.7,1.07,2.48,1.15,4.63.57,1.05-.27,2.32-.75,3.9-1,.4-.07.81-.12,1.24-.15.22,0,.43,0,.65,0h.33l.56,0a5.74,5.74,0,0,1,1.71.5,8.72,8.72,0,0,1,1.21.67,15.48,15.48,0,0,1,3.33,3.09,28.77,28.77,0,0,1,2.39,3.36,46.55,46.55,0,0,1,5.63,14.64c-3.25-4.09-6.16-8.26-9.38-11.9-.79-.91-1.63-1.76-2.45-2.54a13.25,13.25,0,0,0-2.46-1.86,1.45,1.45,0,0,0-.61-.23h-.06l-.3,0c-.2,0-.42.07-.65.13-.92.21-2,.63-3.45,1a11.12,11.12,0,0,1-5.06.33,9.7,9.7,0,0,1-4.64-2.39,13.18,13.18,0,0,1-1.58-1.67c-.46-.57-.91-1.21-1.19-1.59a11,11,0,0,0-2.11-2.23,5.29,5.29,0,0,0-2.49-1.1,6.26,6.26,0,0,0-3,.37A18.43,18.43,0,0,0,756,362.19Z" transform="translate(-445.5 -121.26)"/><path d="M756,362.19a12.63,12.63,0,0,1,.3-3.57,14.64,14.64,0,0,1,1.21-3.49,13,13,0,0,1,5.36-5.69,14.72,14.72,0,0,1,7.89-1.7l1.66.11a5.84,5.84,0,0,0,1.11-.07,3.57,3.57,0,0,0,1.68-.73,13.34,13.34,0,0,0,3-4.44c.48-1,1-2,1.55-3.08a23.35,23.35,0,0,1,2-3.24,12.46,12.46,0,0,1,3-2.93,9.26,9.26,0,0,1,1-.56,6.81,6.81,0,0,1,1.17-.43,4.87,4.87,0,0,1,2.81,0,4.39,4.39,0,0,1,2.14,1.51,6,6,0,0,1,1,1.89,8.87,8.87,0,0,1,.32,3.72,16.44,16.44,0,0,0-2.2-2.6c-.75-.72-1.62-1.08-2-.88a7.24,7.24,0,0,0-1.35,1.08,9.39,9.39,0,0,0-1.56,2.08c-.93,1.65-1.65,3.69-2.6,5.86a24.22,24.22,0,0,1-1.71,3.38,12,12,0,0,1-2.92,3.35,9.2,9.2,0,0,1-4.56,1.84,11.73,11.73,0,0,1-2.3,0l-1-.13-.71-.12a12.27,12.27,0,0,0-5.46.33C761.3,354.76,758.21,358.08,756,362.19Z" transform="translate(-445.5 -121.26)"/><path d="M745.75,334.75a12.1,12.1,0,0,1,1.41-3.68,11.53,11.53,0,0,1,2.62-3.2,10.48,10.48,0,0,1,3.88-2.08,11.79,11.79,0,0,1,4.49-.32,16.43,16.43,0,0,1,4.24,1.1,22.06,22.06,0,0,0,3.29,1.28,5.76,5.76,0,0,0,2.46.23,5,5,0,0,0,2.06-1c.81-.59,1.77-1.42,3-2.3a12.87,12.87,0,0,1,2.16-1.17c.2-.08.38-.16.7-.26s.48-.14.69-.18A11.29,11.29,0,0,1,778,323a14.2,14.2,0,0,1,8.85,1.87,13,13,0,0,1,5.44,6.74,18.16,18.16,0,0,1,.89,7.9c-.53-1.2-1-2.37-1.59-3.47a22.76,22.76,0,0,0-1.9-3.07,11.12,11.12,0,0,0-5-3.92,10.94,10.94,0,0,0-5.9-.44c-1.4.14-2.66,1.56-5.15,3.39a12.36,12.36,0,0,1-2.18,1.23,8.78,8.78,0,0,1-2.69.67,10.43,10.43,0,0,1-5-.88,25.88,25.88,0,0,1-3.54-2,15.08,15.08,0,0,0-2.93-1.3,8.37,8.37,0,0,0-6.13.35A14.77,14.77,0,0,0,745.75,334.75Z" transform="translate(-445.5 -121.26)"/><path d="M745.75,334.75a8.7,8.7,0,0,1,.18-7.08,13.14,13.14,0,0,1,5-5.62,19.74,19.74,0,0,1,3.3-1.67q.85-.34,1.71-.61l.42-.13.28-.1a4.17,4.17,0,0,0,2.82-2.88,33,33,0,0,0,.5-5.81,18.69,18.69,0,0,1,1.53-7.34,8.76,8.76,0,0,1,2.7-3.3,8.37,8.37,0,0,1,3.79-1.49,11.43,11.43,0,0,1,6.93,1.32,18,18,0,0,0-6,1.74,5.9,5.9,0,0,0-1.9,1.59,7.15,7.15,0,0,0-1,2,18.28,18.28,0,0,0-.37,5.5,27.48,27.48,0,0,1-.38,7.19,9.6,9.6,0,0,1-2.11,4.14,9.34,9.34,0,0,1-3.88,2.54,8.34,8.34,0,0,1-1,.31l-.5.13-.37.09q-.72.13-1.42.32a24.63,24.63,0,0,0-2.71.85,13.15,13.15,0,0,0-4.67,2.91A10.71,10.71,0,0,0,745.75,334.75Z" transform="translate(-445.5 -121.26)"/><path d="M726.71,315.15a10,10,0,0,1,2.73-7.12,17.46,17.46,0,0,1,6.57-4.48c.61-.25,1.24-.46,1.86-.67l1.71-.51a12.79,12.79,0,0,0,2.61-1.23,16.89,16.89,0,0,0,4.24-4.28,20.62,20.62,0,0,1,2.84-3.1,8.66,8.66,0,0,1,2.35-1.38c.22-.09.46-.15.69-.23l.44-.12c.33-.09.68-.17,1-.23a17.13,17.13,0,0,1,8.28.65A34.79,34.79,0,0,1,775,300.06c-4.82-1.12-9.43-2.51-13.85-3a15.54,15.54,0,0,0-6,.28l-.7.22-.42.14-.16.07a3,3,0,0,0-.7.51,18,18,0,0,0-2,2.28,28.18,28.18,0,0,1-2.65,3,15.28,15.28,0,0,1-3.57,2.52,14.75,14.75,0,0,1-4.11,1.35l-1,.15-.82.1c-.54.08-1.08.17-1.62.28a18.47,18.47,0,0,0-6.08,2.23A11.49,11.49,0,0,0,726.71,315.15Z" transform="translate(-445.5 -121.26)"/><path d="M740.11,272.92a18.58,18.58,0,0,0-3,1.28,5.35,5.35,0,0,0-2,1.73,1.85,1.85,0,0,0-.07,1.67c.1.32.27.83.44,1.23s.37.85.59,1.27c.87,1.71,2,3.39,3.11,5.43a17.45,17.45,0,0,1,1.49,3.49,9,9,0,0,1,.19,4.68,8.62,8.62,0,0,1-.94,2.31,10.29,10.29,0,0,1-1.4,1.79,11.63,11.63,0,0,1-1.56,1.35l-.4.28-.34.23-.54.38a26.22,26.22,0,0,0-4.22,4,19.76,19.76,0,0,0-4.76,11.13,13.69,13.69,0,0,1-1.07-6.78,17.91,17.91,0,0,1,2.11-6.82,22.49,22.49,0,0,1,4.39-5.71c.23-.21.46-.42.73-.64s.22-.18.31-.27l.24-.21a10.8,10.8,0,0,0,.83-.86,3.64,3.64,0,0,0,.8-1.51,4,4,0,0,0-.12-1.74,17.31,17.31,0,0,0-.94-2.53,43.32,43.32,0,0,1-2.48-6.31A14.8,14.8,0,0,1,731,278a5.86,5.86,0,0,1,.49-2.38,5,5,0,0,1,1.51-1.87,6.72,6.72,0,0,1,3.7-1.22A10.25,10.25,0,0,1,740.11,272.92Z" transform="translate(-445.5 -121.26)"/><path d="M702,304.78a9.76,9.76,0,0,1-1.56-3.6,9.37,9.37,0,0,1,0-4.19,9.71,9.71,0,0,1,2-4,13.14,13.14,0,0,1,3.36-2.84,19,19,0,0,1,1.9-1l1-.41.73-.33a8.31,8.31,0,0,0,2.28-1.51,3.05,3.05,0,0,0,.87-1.67,21.94,21.94,0,0,0,.23-3.13,12.16,12.16,0,0,1,1-4.67,8.19,8.19,0,0,1,1.56-2.26,13.92,13.92,0,0,1,1.72-1.55,17.61,17.61,0,0,1,7.87-3.26,26.37,26.37,0,0,1,15.3,2.51c-5.07,0-10,.32-14.22,1.83a15.73,15.73,0,0,0-5.43,3.16,8.29,8.29,0,0,0-1,1,3.41,3.41,0,0,0-.51.82,9.07,9.07,0,0,0-.33,2.61,19,19,0,0,1-.41,4.28,8.56,8.56,0,0,1-2.91,4.6,12.14,12.14,0,0,1-4.19,2.1c-.34.1-.68.19-1,.28l-.8.2a14.37,14.37,0,0,0-1.52.49,8.6,8.6,0,0,0-4.72,3.66A11.08,11.08,0,0,0,702,304.78Z" transform="translate(-445.5 -121.26)"/></g><g id="Layer_10" data-name="Layer 10"><path d="M728.77,311.5a29.35,29.35,0,0,1,1.69-2.82,1.5,1.5,0,0,0-2.59-1.51,29.35,29.35,0,0,0-1.69,2.82,1.53,1.53,0,0,0,.54,2.05,1.52,1.52,0,0,0,2.05-.54Z" transform="translate(-445.5 -121.26)"/><path d="M730.15,309.26a25,25,0,0,1,5.92-2.39,1.5,1.5,0,0,0-.8-2.89,28.1,28.1,0,0,0-6.63,2.69,1.5,1.5,0,0,0,1.51,2.59Z" transform="translate(-445.5 -121.26)"/><path d="M625.42,330.32l-.49-.06,1.06.44c-1.09-.86-1.41-3.75-1.58-5.05a12.24,12.24,0,0,0-.83-4c-.84-1.74-3.43-.22-2.59,1.51a10.51,10.51,0,0,1,.49,3.1,25.14,25.14,0,0,0,.87,3.67c.55,1.81,1.06,3.14,3.08,3.4s1.89-2.76,0-3Z" transform="translate(-445.5 -121.26)"/><path d="M624.5,330.44a67.71,67.71,0,0,1-1.11-8.44c-.13-1.92-3.13-1.93-3,0a74.2,74.2,0,0,0,1.22,9.24c.37,1.89,3.26,1.09,2.89-.8Z" transform="translate(-445.5 -121.26)"/><path d="M624.08,329.63c-.64-1.21-.23-3.3-.54-4.7a14.09,14.09,0,0,1-.76-4.76c.2-1.92-2.8-1.9-3,0s.46,3.67.87,5.56-.07,3.68.85,5.41,3.49.19,2.59-1.51Z" transform="translate(-445.5 -121.26)"/><path d="M622.92,330a38.38,38.38,0,0,0-1.17-10.09c-.54-1.85-3.44-1.06-2.89.8a35.25,35.25,0,0,1,1.06,9.29c0,1.93,3,1.93,3,0Z" transform="translate(-445.5 -121.26)"/><path d="M612.83,357.33a18.92,18.92,0,0,1-3.22-3.25,19.9,19.9,0,0,1-2-4.52c-.67-1.79-3.57-1-2.89.8A24.26,24.26,0,0,0,607,355.6a20.79,20.79,0,0,0,3.69,3.85c1.45,1.26,3.58-.85,2.12-2.12Z" transform="translate(-445.5 -121.26)"/><path d="M611.79,388.81a32.37,32.37,0,0,1-5-4.63,16.51,16.51,0,0,0-5.06-3.43c-1.73-.83-3.26,1.75-1.51,2.59a15.53,15.53,0,0,1,5.36,4,24.92,24.92,0,0,0,4.66,4c1.58,1.12,3.08-1.48,1.51-2.59Z" transform="translate(-445.5 -121.26)"/><path d="M626.75,414.4c-1.9.07-3.7.63-5.6.2a19.25,19.25,0,0,1-5-2.23c-1.69-.94-3.2,1.65-1.51,2.59a22.93,22.93,0,0,0,5.71,2.53c2.22.53,4.18,0,6.4-.09,1.92-.07,1.93-3.07,0-3Z" transform="translate(-445.5 -121.26)"/><path d="M645.49,436.69c-.41,1.32-3.88,1.62-5,1.81a29.24,29.24,0,0,0-4.93,1.11c-1.81.64-1,3.54.8,2.89,3.5-1.23,10.7-.64,12.07-5,.58-1.85-2.32-2.64-2.89-.8Z" transform="translate(-445.5 -121.26)"/><path d="M674.95,446.9c-2.55,3.32-6.3,4-9.54,6.31-1.56,1.11-.06,3.71,1.51,2.59,1.87-1.33,4.1-1.94,6.05-3.14a17,17,0,0,0,4.57-4.25c1.18-1.53-1.43-3-2.59-1.51Z" transform="translate(-445.5 -121.26)"/><path d="M759.44,385.42a65.86,65.86,0,0,1,10.91.81c1.88.39,2.69-2.5.8-2.89a70.48,70.48,0,0,0-11.71-.91c-1.93-.07-1.93,2.93,0,3Z" transform="translate(-445.5 -121.26)"/><path d="M646.31,309.71a5.12,5.12,0,0,1,.44-4c.53-1,1.12-2,1.7-3a1.5,1.5,0,0,0-2.59-1.51,32.78,32.78,0,0,0-2.31,4.37,8,8,0,0,0-.14,4.94c.43,1.88,3.32,1.09,2.89-.8Z" transform="translate(-445.5 -121.26)"/><path d="M646.25,309.26c.82.32.34.21.11-.36-.1-.26-.26-.51-.38-.77-.27-.55-.49-1.14-.79-1.67-1.29-2.28-2.92-4.43-4.36-6.62-1.06-1.6-3.66-.1-2.59,1.51a78.88,78.88,0,0,1,4.64,7.19c.66,1.29,1.09,3,2.57,3.61,1.8.7,2.58-2.2.8-2.89Z" transform="translate(-445.5 -121.26)"/><path d="M647,305q1.11-2.88,2.07-5.81c.6-1.84-2.29-2.63-2.89-.8s-1.33,3.89-2.07,5.81,2.2,2.58,2.89.8Z" transform="translate(-445.5 -121.26)"/></g><g id="Layer_9" data-name="Layer 9"><path d="M688.09,305.74a22.25,22.25,0,0,1-1-4.6,19.39,19.39,0,0,1,0-4.68,13.48,13.48,0,0,1,1.38-4.53,13.14,13.14,0,0,1,1.29-2,8.15,8.15,0,0,0,1-1.7,7.05,7.05,0,0,0,.51-3.92,15.73,15.73,0,0,0-1.27-4c-.58-1.33-1.25-2.64-1.81-4a9.48,9.48,0,0,1-.89-4.29,9.3,9.3,0,0,0,1.24,4.13c.67,1.29,1.44,2.53,2.15,3.82a16.66,16.66,0,0,1,1.72,4.17,8.43,8.43,0,0,1-.21,4.7,9.78,9.78,0,0,1-1.05,2.14,10.46,10.46,0,0,0-1.82,5.69,19,19,0,0,0,1.54,7.93Z" transform="translate(-445.5 -121.26)"/><path d="M660.39,309.88a22.49,22.49,0,0,1-1.75-4.34,22.21,22.21,0,0,1-.84-4.53,17.48,17.48,0,0,1,.25-4.62c.15-.76.39-1.53.54-2.14a7.85,7.85,0,0,0,.21-2,6,6,0,0,0-1.36-3.63,19.24,19.24,0,0,0-3.06-2.93,20,20,0,0,1-3.19-3,6.19,6.19,0,0,1-1.37-4.1,6,6,0,0,0,1.66,3.86,19.51,19.51,0,0,0,3.35,2.68,20.07,20.07,0,0,1,3.47,2.8,7.37,7.37,0,0,1,2,4.24,9.43,9.43,0,0,1,0,2.38c-.13.81-.27,1.45-.35,2.12a15.42,15.42,0,0,0,.13,4.07,19.78,19.78,0,0,0,1.09,3.95,20,20,0,0,0,1.81,3.6Z" transform="translate(-445.5 -121.26)"/><path d="M638.73,325.58a27.31,27.31,0,0,1-3.59-3.08,21.87,21.87,0,0,1-2.94-3.69,12.74,12.74,0,0,1-1.81-4.47,10,10,0,0,1-.13-2.44,5.05,5.05,0,0,0-.19-1.91,6,6,0,0,0-2.45-3.07,20.21,20.21,0,0,0-3.85-2l-4.14-1.65a16.34,16.34,0,0,1-3.92-2.14,16.16,16.16,0,0,0,4.05,1.78l4.27,1.28a21.13,21.13,0,0,1,4.22,1.74,7.34,7.34,0,0,1,3.29,3.53,6.7,6.7,0,0,1,.48,2.47,8.14,8.14,0,0,0,.26,2,10.66,10.66,0,0,0,1.82,3.6,22.7,22.7,0,0,0,6.24,5.52Z" transform="translate(-445.5 -121.26)"/><path d="M625.79,347.06a28.23,28.23,0,0,1-4.69-.54,21.52,21.52,0,0,1-4.52-1.38,11.6,11.6,0,0,1-4-2.78,7.82,7.82,0,0,1-1.36-2.13l-.22-.51a2.58,2.58,0,0,0-.19-.42,3.48,3.48,0,0,0-.53-.75,6.65,6.65,0,0,0-3.54-1.78,29.11,29.11,0,0,0-4.34-.54c-1.48-.1-3-.17-4.46-.34a12,12,0,0,1-4.31-1.16,11.77,11.77,0,0,0,4.34.76c1.48,0,3,0,4.45-.06a30,30,0,0,1,4.54.16,8,8,0,0,1,4.46,1.83,5.11,5.11,0,0,1,.84,1,4.09,4.09,0,0,1,.33.56l.26.49A6,6,0,0,0,614,341a9.51,9.51,0,0,0,3.44,2,23.12,23.12,0,0,0,8.27,1.07Z" transform="translate(-445.5 -121.26)"/><path d="M621.82,372.78A37.5,37.5,0,0,1,617,374a28.54,28.54,0,0,1-4.92.5,14,14,0,0,1-5-.78,7.64,7.64,0,0,1-2.33-1.36,7.47,7.47,0,0,1-.93-1l-.31-.39-.35-.34a4.45,4.45,0,0,0-3.87-.7,21.48,21.48,0,0,0-4.36,1.49c-1.44.62-2.87,1.31-4.35,1.9a11.64,11.64,0,0,1-4.62,1,11.45,11.45,0,0,0,4.45-1.42c1.4-.7,2.76-1.5,4.16-2.26a22.41,22.41,0,0,1,4.44-2,7.63,7.63,0,0,1,2.57-.31,5,5,0,0,1,2.6.91l.54.44.48.5a5.16,5.16,0,0,0,2.54,1.57,11.93,11.93,0,0,0,4.3.34,31.51,31.51,0,0,0,8.75-2.17Z" transform="translate(-445.5 -121.26)"/><path d="M626.71,400.16a28.38,28.38,0,0,1-4.1,2.51,21.9,21.9,0,0,1-4.5,1.71,11.63,11.63,0,0,1-5,.23,8,8,0,0,1-2.41-.88,7.41,7.41,0,0,0-1.86-.77,5.24,5.24,0,0,0-3.88.66,16.05,16.05,0,0,0-3.4,2.78c-1.06,1.07-2.07,2.21-3.17,3.26a9.52,9.52,0,0,1-3.8,2.49,9.34,9.34,0,0,0,3.51-2.76c1-1.13,1.9-2.34,2.88-3.52a17,17,0,0,1,3.36-3.25,6.64,6.64,0,0,1,4.79-1.21,9,9,0,0,1,2.4.76,6.1,6.1,0,0,0,1.89.53,9.56,9.56,0,0,0,4-.52,23.26,23.26,0,0,0,7.32-4.33Z" transform="translate(-445.5 -121.26)"/><path d="M642.08,421.68a23.3,23.3,0,0,1-2.27,3.79,18.1,18.1,0,0,1-3,3.24,10.33,10.33,0,0,1-4,2.12,10.79,10.79,0,0,1-2.2.27,15.19,15.19,0,0,0-1.94.24,9.2,9.2,0,0,0-3.52,1.48,9.87,9.87,0,0,0-2.58,2.93c-.7,1.15-1.27,2.41-2,3.61a8,8,0,0,1-2.77,3,7.83,7.83,0,0,0,2.44-3.22c.57-1.23,1-2.53,1.64-3.8a10.82,10.82,0,0,1,2.53-3.46,10.52,10.52,0,0,1,3.85-2.06,16.78,16.78,0,0,1,2.12-.47,9.08,9.08,0,0,0,1.86-.39,8.28,8.28,0,0,0,3-2,18.71,18.71,0,0,0,4-6.46Z" transform="translate(-445.5 -121.26)"/><path d="M666.82,437.33a42.09,42.09,0,0,1-4.84,7,27.61,27.61,0,0,1-3,3.05,19.1,19.1,0,0,1-1.7,1.33l-.9.6a8.41,8.41,0,0,0-.77.52,7.56,7.56,0,0,0-2.28,3,17.44,17.44,0,0,0-1.11,3.84c-.26,1.34-.47,2.71-.82,4.06a10.35,10.35,0,0,1-1.69,3.77,10.15,10.15,0,0,0,1.29-3.85c.21-1.35.28-2.71.41-4.09a18.42,18.42,0,0,1,.77-4.17,9,9,0,0,1,2.35-3.76,10.1,10.1,0,0,1,.87-.73l.77-.61a17.21,17.21,0,0,0,1.44-1.33,25.47,25.47,0,0,0,2.54-3,39.62,39.62,0,0,0,4-6.87Z" transform="translate(-445.5 -121.26)"/><path d="M714.64,435.51a23.66,23.66,0,0,1,3.33,3.23,17.45,17.45,0,0,1,2.55,3.89,9.55,9.55,0,0,1,.95,4.71,12.15,12.15,0,0,1-.46,2.26,11,11,0,0,0-.3,2,7.7,7.7,0,0,0,.73,3.89,11.62,11.62,0,0,0,2.52,3.29c1,1,2.16,1.9,3.21,2.9a8.59,8.59,0,0,1,2.48,3.55,8.41,8.41,0,0,0-2.72-3.26c-1.12-.89-2.32-1.69-3.46-2.62a12.55,12.55,0,0,1-3-3.31,9,9,0,0,1-1.25-4.44,12.58,12.58,0,0,1,.15-2.3,10.66,10.66,0,0,0,.25-2,7.51,7.51,0,0,0-1.08-3.61,18.43,18.43,0,0,0-5.58-5.69Z" transform="translate(-445.5 -121.26)"/><path d="M738.25,420.18a13.49,13.49,0,0,1,2.4.8,15.54,15.54,0,0,1,2.16,1.15,12.39,12.39,0,0,1,3.56,3.4,11.19,11.19,0,0,1,1.79,4.54c.08.4.1.8.14,1.19l0,1.15a6.09,6.09,0,0,0,.33,1.93,5.81,5.81,0,0,0,2.56,3,18.16,18.16,0,0,0,4,1.71c1.4.46,2.85.86,4.25,1.42a8.49,8.49,0,0,1,2,1.09,3.4,3.4,0,0,1,1.26,1.82,3.3,3.3,0,0,0-1.38-1.67,8.21,8.21,0,0,0-2-.89c-1.4-.44-2.86-.7-4.32-1a19.06,19.06,0,0,1-4.34-1.45,7.18,7.18,0,0,1-3.42-3.4,7.73,7.73,0,0,1-.64-2.4l-.12-1.08c-.07-.34-.11-.68-.2-1a9.07,9.07,0,0,0-1.74-3.57,9.93,9.93,0,0,0-3.06-2.48,12.83,12.83,0,0,0-1.84-.8,10.9,10.9,0,0,0-1.87-.47Z" transform="translate(-445.5 -121.26)"/><path d="M754.15,396.45a29.16,29.16,0,0,1,4.38,1.61,24.72,24.72,0,0,1,4,2.3,15.1,15.1,0,0,1,3.42,3.27,10.18,10.18,0,0,1,1.22,2.09,4.29,4.29,0,0,0,1,1.54,6.94,6.94,0,0,0,3.63,1.55,30.28,30.28,0,0,0,4.32.34c1.47,0,2.95,0,4.43.16a11.89,11.89,0,0,1,4.31,1,11.71,11.71,0,0,0-4.32-.58c-1.46,0-2.93.14-4.4.23a31.18,31.18,0,0,1-4.49,0,8.27,8.27,0,0,1-4.51-1.53,6,6,0,0,1-1.59-2,8.33,8.33,0,0,0-1.14-1.63,13,13,0,0,0-3.16-2.56,25.2,25.2,0,0,0-7.79-2.9Z" transform="translate(-445.5 -121.26)"/><path d="M757.44,369.58a31.87,31.87,0,0,1,9,.93,18.35,18.35,0,0,1,4.29,1.68,12.37,12.37,0,0,1,1.94,1.33c.64.56,1,1,1.58,1.38a4.84,4.84,0,0,0,3.59.95,10.76,10.76,0,0,0,3.82-1.53c1.23-.72,2.44-1.54,3.73-2.24a7.86,7.86,0,0,1,4.17-1.16,7.67,7.67,0,0,0-4,1.51c-1.19.8-2.3,1.72-3.5,2.57a11.72,11.72,0,0,1-4,2.05,6.29,6.29,0,0,1-4.69-.78,20.31,20.31,0,0,1-1.82-1.32,10.48,10.48,0,0,0-1.72-1,16.23,16.23,0,0,0-3.89-1.18,29.38,29.38,0,0,0-8.24-.21Z" transform="translate(-445.5 -121.26)"/><path d="M750.48,345a18.56,18.56,0,0,1,3.61-3.15,18.89,18.89,0,0,1,4.18-2.14,16.47,16.47,0,0,1,9.22-.59c.41.08.68.16,1,.21a5.23,5.23,0,0,0,1,.07,5.56,5.56,0,0,0,1.89-.39,12.34,12.34,0,0,0,3.48-2.3c1.09-.95,2.15-2,3.29-2.92a10.93,10.93,0,0,1,3.83-2.17,10.71,10.71,0,0,0-3.53,2.51c-1,1-2,2.15-3,3.23a13.4,13.4,0,0,1-3.55,2.88,7,7,0,0,1-2.32.73,6.86,6.86,0,0,1-1.24,0c-.4,0-.85-.09-1.17-.13a14.37,14.37,0,0,0-8,1.06,16.35,16.35,0,0,0-3.48,2.1,16,16,0,0,0-2.81,2.8Z" transform="translate(-445.5 -121.26)"/><path d="M735.46,321.74a27.44,27.44,0,0,1,2.47-4,21.16,21.16,0,0,1,3.17-3.48,11.6,11.6,0,0,1,4.22-2.4,7.75,7.75,0,0,1,2.49-.31,5,5,0,0,0,1.9-.18,7.32,7.32,0,0,0,3.2-2.38,28.71,28.71,0,0,0,2.49-3.58c.77-1.26,1.51-2.55,2.33-3.79a13.58,13.58,0,0,1,2.9-3.37,13.4,13.4,0,0,0-2.57,3.57c-.7,1.3-1.32,2.64-2,4a29.62,29.62,0,0,1-2.24,3.93,8.67,8.67,0,0,1-3.59,3.14,6.7,6.7,0,0,1-2.46.48,5.88,5.88,0,0,0-1.88.39,9.52,9.52,0,0,0-3.27,2.24,22.48,22.48,0,0,0-4.45,7Z" transform="translate(-445.5 -121.26)"/><path d="M713.42,308.35a29.09,29.09,0,0,1,1.11-4.52,24,24,0,0,1,1.84-4.26,14,14,0,0,1,2.94-3.73,9.56,9.56,0,0,1,2-1.36l1-.45a6.38,6.38,0,0,0,3.17-3.69,16,16,0,0,0,.94-4.16c.31-2.89.15-5.85.27-8.78.15,2.94.58,5.85.53,8.83a17,17,0,0,1-.6,4.5,8.4,8.4,0,0,1-2.48,4,8.65,8.65,0,0,1-1,.74l-1,.55a7.68,7.68,0,0,0-1.53,1.21,11.91,11.91,0,0,0-2.23,3.35,24.91,24.91,0,0,0-2,8Z" transform="translate(-445.5 -121.26)"/></g><g id="Layer_11" data-name="Layer 11"><rect class="cls-5" x="235.5" y="250.74" width="13" height="204"/></g><g id="Layer_5" data-name="Layer 5"><polyline class="cls-3" points="250.5 345.41 250.5 456.07 241.83 456.07 242.5 456.07 233.83 456.07 233.83 345.41"/><polyline class="cls-6" points="250.5 345.41 250.5 456.07 241.83 456.07 242.5 456.07 233.83 456.07 233.83 345.41"/></g></svg>