<svg xmlns="http://www.w3.org/2000/svg" viewBox="0 0 483 527.48"><defs><style>.cls-1{fill:#e7ba00;}.cls-2{fill:#020100;}.cls-3{fill:#010000;}.cls-4{fill:#010100;}.cls-5{fill:#020200;}.cls-6{fill:#080600;}.cls-7{fill:#0b0900;}.cls-8{fill:#0a0800;}.cls-9{fill:#0d0a00;}.cls-10{fill:#0f0c00;}.cls-11{fill:#1b1600;}.cls-12{fill:#0d0b00;}.cls-13{fill:none;stroke:#000;stroke-width:3px;}</style></defs><title>House Baelish</title><g id="Layer_2" data-name="Layer 2"><path class="cls-1" d="M927,122.76V328.6a314.37,314.37,0,0,1-2.28,38c-.11.93-.24,1.86-.36,2.79s-.24,1.86-.39,2.79q-.7,5.05-1.61,10c-.07.44-.15.87-.23,1.31-.15.8-.29,1.6-.45,2.39s-.34,1.8-.51,2.69l-.45,2.22-.24,1.16c-.15.71-.3,1.44-.47,2.15q-.8,3.55-1.61,7l-.58,2.32-.52,2q-1.52,5.88-3.27,11.61c-.29,1-.59,1.94-.9,2.92l-.6,1.88c-.19.63-.39,1.25-.6,1.86l-1.1,3.26c-.37,1.09-.68,2-1,3-.47,1.28-.92,2.55-1.39,3.81-.36,1-.73,2-1.11,3l-.19.49c-.43,1.14-.87,2.25-1.32,3.37s-.87,2.16-1.32,3.19a3.35,3.35,0,0,1-.18.42c-.4,1-.8,2-1.25,3s-.75,1.75-1.13,2.62l-.66,1.49c-.47,1.07-.95,2.12-1.44,3.15s-.9,2-1.36,2.93l-1,2.12c-.3.63-.6,1.25-.91,1.88-.63,1.32-1.31,2.64-2,4q-2.53,5-5.19,9.77l-2,3.57-.11.21q-2.13,3.71-4.33,7.33c-.71,1.2-1.46,2.39-2.18,3.54-.1.16-.19.31-.3.46-.55.89-1.12,1.78-1.69,2.66l-.66,1c-.65,1-1.31,2-2,3l-.13.18c-.66,1-1.32,2-2,3l-.45.67q-2.26,3.28-4.54,6.46l-.31.42c-.8,1.07-1.54,2.14-2.31,3.19s-1.66,2.23-2.5,3.32q-2.29,3-4.61,6l-.8,1c-.73.93-1.48,1.85-2.22,2.76L854,526.61l-.57.69L851,530.1q-2.83,3.32-5.72,6.53c-.75.85-1.52,1.69-2.29,2.51l-2.22,2.39q-3,3.19-5.93,6.24-2.76,2.83-5.53,5.59c-.91.91-1.84,1.82-2.76,2.71s-1.85,1.78-2.78,2.67l-2.28,2.11c-.68.65-1.36,1.28-2.05,1.91a448.64,448.64,0,0,1-61.76,47.47c-.86.55-1.73,1.1-2.58,1.6q-6.42,4.07-12.46,7.63l-2.41,1.4-2.36,1.36-2.34,1.35-2.22,1.28c-8.35,4.68-15.91,8.59-22.38,11.76l-1.61.8c-10.63,5.15-18.11,8.22-21,9.35l-.42.18-.61.23-.14.06h-.08l-.23-.1-.21,0-1.07-.42-.55-.23c-.87-.34-2-.8-3.36-1.38l-.47-.18c-1.76-.8-3.88-1.67-6.33-2.77l-1.39-.61a443.16,443.16,0,0,1-39.74-20.6c-.8-.45-1.61-.92-2.36-1.38a473.14,473.14,0,0,1-44.78-30l-2.62-2c-1-.75-2-1.52-2.95-2.29l-2.81-2.21c-6.19-4.92-12.43-10.15-18.64-15.69L558.08,566q-2.3-2.05-4.59-4.2l-1.67-1.57L550,558.54l-2-1.94c-1.12-1.07-2.24-2.16-3.34-3.26-.84-.8-1.69-1.67-2.52-2.51l-.24-.26q-1.25-1.25-2.5-2.51c-.66-.68-1.32-1.36-2-2l-2-2.07-.13-.15-2.1-2.24q-3.36-3.61-6.66-7.36c-.68-.8-1.36-1.55-2-2.35-.57-.65-1.12-1.28-1.66-1.94l-2-2.39q-4.26-5.11-8.39-10.48-1.13-1.45-2.24-2.92c-1.89-2.47-3.73-5-5.57-7.55l-1.68-2.39c-.13-.16-.24-.34-.36-.5-.59-.85-1.19-1.7-1.77-2.55-.95-1.38-1.89-2.77-2.82-4.17q-1.11-1.64-2.18-3.31l-.15-.24-2.22-3.47c-.07-.13-.15-.24-.22-.37-.71-1.14-1.41-2.27-2.1-3.4s-1.49-2.46-2.21-3.7-1.44-2.39-2.13-3.67q-4.6-8-8.77-16.47c-.35-.69-.69-1.38-1-2.08-.22-.44-.44-.89-.65-1.35-.43-.87-.8-1.75-1.25-2.63a27.17,27.17,0,0,1-1.15-2.47l-.23-.48c-.26-.58-.52-1.16-.8-1.75l-.26-.57c-.26-.58-.52-1.18-.8-1.77q-1.44-3.26-2.78-6.58c-.42-1-.8-2-1.23-3.07-.1-.26-.21-.53-.31-.8-.4-1-.8-2-1.16-3s-.68-1.82-1-2.74l-.23-.65c-.18-.45-.34-.91-.5-1.36q-1-2.69-1.89-5.44c-.21-.6-.4-1.21-.6-1.8-.26-.8-.51-1.54-.75-2.31-.14-.42-.26-.8-.39-1.22-.26-.8-.5-1.6-.75-2.39-.31-1-.61-2.06-.92-3.1-.18-.65-.39-1.28-.57-2-.37-1.28-.74-2.58-1.08-3.89-.19-.68-.37-1.35-.55-2-.13-.5-.26-1-.39-1.51-.32-1.22-.63-2.46-.92-3.7-.18-.7-.35-1.4-.52-2.11-.07-.29-.13-.57-.19-.85-.37-1.55-.71-3.11-1.07-4.69-.26-1.16-.5-2.33-.74-3.5-.14-.71-.29-1.43-.43-2.14s-.32-1.6-.47-2.45a2.13,2.13,0,0,0-.1-.47c-.15-.8-.3-1.64-.45-2.48s-.31-1.84-.47-2.77-.3-1.8-.45-2.71q-.87-5.52-1.56-11.17A314.73,314.73,0,0,1,447,328.58V122.76Z" transform="translate(-445.5 -121.26)"/></g><g id="Layer_5" data-name="Layer 5"><path class="cls-2" d="M653.48,463.12A210.62,210.62,0,0,0,644.83,510c-.45,6.35,2.76,10.14,8.5,14.15C652.93,504.1,652.16,482.16,653.48,463.12Zm-3.81,53.8s-2.26-1.29.18-3.07a1.61,1.61,0,0,1,2.32.5C652.77,515.41,652.88,516.77,649.67,516.92Z" transform="translate(-445.5 -121.26)"/><path class="cls-2" d="M710.92,429.24l-.39-.73a1.2,1.2,0,0,1,.17-.21A5.85,5.85,0,0,0,710.92,429.24Z" transform="translate(-445.5 -121.26)"/><path d="M617.88,304.56s-.07-4.21,1-4.62,1.44.26,1.43,1.26a3.83,3.83,0,0,1-1.35,2.35Z" transform="translate(-445.5 -121.26)"/><path d="M714.12,294.84c-4.63-12.74-12.41-23.6-20.53-34.25-5.17-6.77-9.92-13.83-11-22.54-1.16-9.89-2.17-19.8-2.86-29.73a15.43,15.43,0,0,0-4.7-10.4c-9-8.93-19.8-10.27-31.1-6.53-8.56,2.84-16.58,7-26.07,6-2.32-.25-4.92,1.17-7.23,2.21-1.35.61-3.19,1.84-3.37,3-.29,1.92,2.18,2,3.48,2.45,6.7,2.44,11,7.26,14.27,13.36,2.59,4.85,5.35,9.62,8.19,14.34,2,3.27,4.57,5.95,8.38,7,6.64,1.92,8.74,4.93,7.5,11.76a41,41,0,0,1-8.94,19.74,1,1,0,0,0,.4,1.59c2.84,1.25-.4,4.83,2.91,5.75.07,0,1.24-.33,2.29-.63a1.39,1.39,0,0,1,1.76,1.29l.2,7.09c-.25,5.59-1.5,9.5-.61,15,2.19,2.31,3-.53,4.2-1.25,8.8-5.24,16.55-14,28.53-8.14.38.19,1.09-.31,1.64-.49a12.56,12.56,0,0,1,9.86.77,51,51,0,0,0,5.21,2.09,19.5,19.5,0,0,1,5.41,2.86c1.33,1,2.68,2,4.09,3,3.39,2.19,5.81,5.7,9,9.38A24.6,24.6,0,0,0,714.12,294.84Zm-59.25-90.21c-4-.69-6.54-3.13-10-2.45a.5.5,0,0,1-.55-.74c.89-1.46,3-3.69,6.84-1.69a8.94,8.94,0,0,1,4.29,4.29C655.64,204.4,655.28,204.7,654.87,204.63Z" transform="translate(-445.5 -121.26)"/><path class="cls-2" d="M747.75,539.42c-13-15.28-22.8-32.59-31.57-50.38-11.23-22.78-19.78-46.66-24.3-71.81l0-.23c-.11-1.21.27-3.41-1.53-2.83-7.85,2.52-11.22-3.82-16-7.51-2.45,3.22-1,6.89-1.1,10.34a2.43,2.43,0,0,1,0,.27c-.31,6.78-.14,13.58-.18,20.38.86,9.92,1.68,19.84,2.57,29.75,2.09,23.38,6.33,46.32,14.63,68.34,1.78,4.73,3.78,9.48,8.17,12.71,11.75,8.63,25.36,11.36,39.41,11.91h.45c6.6,0,10-5.83,13.16-10.83C754.19,545.13,750.15,542.26,747.75,539.42Zm-18.81-18.54c-1.44-.55-3.25-1.41-4.41-2a1.34,1.34,0,0,1,.38-2.52,5.17,5.17,0,0,1,1.9.21C731.12,517.74,731.25,521.75,728.94,520.88Zm-2.25-8c-.27.74-4.76-.33-6.5-1.78a1,1,0,0,1,0-1.51,3.17,3.17,0,0,1,3.58-.21C726.69,510.75,727,512,726.69,512.88Zm-2-3.94a33.92,33.92,0,0,0-5.12-.75c-1.77-.17-2-3.07,1.19-3.5S726,509.38,724.74,508.94ZM717,497.88c2.62-1.13,2.69,2.56,2.84,3.62s-3.68.1-3.84,0C715.25,501,714.38,499,717,497.88Zm-7.92-15.46a8.9,8.9,0,0,0-4.32-2.41,1,1,0,0,1-.66-1.3c.86-1.9,3.22-1.17,5.73-.38C712.75,479.25,711.17,484.67,709.08,482.42Zm-1.5-9c1.38,1.69-.81,3.26-3.31,1.56a1.06,1.06,0,0,1,.1-1.81C705.34,472.64,706.67,472.28,707.58,473.39Zm-5.85-7.13c.27-1,.8-2.14,1.77-1.68,1.4.67,1.82,4.07-.81,3.35A1.36,1.36,0,0,1,701.73,466.26ZM696,439.79c.17,1.38-1.58,1.71-3.79,1.13,0,0-.54-1.84.37-2.25S695.83,438.42,696,439.79Zm-2.42-4.87s-1.41,1.83-2.75,0C690.83,434.92,693.08,432.5,693.58,434.92Zm-12-14.84c3.8-3.2,3.61,12.62,3.52,16a.21.21,0,0,1-.38.11C681,430.28,681.58,420.08,681.58,420.08Zm-2.66,21.34s.15,1.23-2.67.83C676.25,442.25,676.67,438.75,678.92,441.42Zm-2.25,4.33s.08-3.58,2.83-2.33S676.42,447.06,676.67,445.75Zm3.57,8.42c2.68.25.32,2.66-1.79,2.41C678.45,456.58,677.56,453.92,680.24,454.17Zm-1.38,4.61c.41-.89,1.19-1.77,2.58-1,2.09,1.24,1,3.25-1.72,2.68A1.24,1.24,0,0,1,678.86,458.78Zm1.78,15s-.94-2.83,1.63-2.75S683.69,474.92,680.64,473.75Zm0-4.25s-2.33-3.33,1.89-3.67S683.44,472.33,680.64,469.5Zm3.9,26.62s-.35-3.34,3.4-2.48S685.33,498.62,684.54,496.12Zm1.71,5.88s-.87-3.94,3.31-3.88,3.56,1.63,2.38,2.63S687.19,504.25,686.25,502Zm1.44,5.4c.51-1.46,1.94-3.9,5.87-3.59,4.48.35-1.38,5.21-4.51,5.42A1.39,1.39,0,0,1,687.69,507.4Zm.93,10.56s2.94-8.65,9.13-8S688.8,521.89,688.62,518Zm6,11.43a1.8,1.8,0,0,1-2.6-1.22,6.82,6.82,0,0,1,.4-4.42c1.31-2.56,4.37-6.48,7.81-6.83C703.06,516.62,698.54,527.27,694.58,529.39Zm5.3,8.93a1.65,1.65,0,0,1-2.65.43,3.65,3.65,0,0,1-.79-3.37c.68-4.07,3.37-9.13,7.31-9.82C707.35,524.93,702.41,533.13,699.88,538.32Zm28,17.56c-4.26-.13-5.88-4.63-5.88-4.63a1.55,1.55,0,0,1,.5-1.5C723.74,548.83,732.12,556,727.88,555.88Zm7.79-15.3c-2.09-2.91-9.34-3.91-9.34-3.91.67,2.83,8.9,11.33,8.9,11.33-4,2.2-14.31-8.42-14.31-8.42-1.75,2.25-1.08,10.42-1.08,10.42s-4.51-2.58-2.3-8.83,1.21-7.14,1.21-7.14c-5.34,6.25-8.41,8.64-10.17,9.38a1,1,0,0,1-1.13-1.68c15.11-15,8.3-13.73,8.3-13.73-3.6,4.45-6.07,6.07-7.55,6.63a.57.57,0,0,1-.58-1c10.68-10.54,5.63-11.08,5.63-11.08a18,18,0,0,1-6.13,4.59c6.64-9.9,3.63-9.6,3.63-9.6-1,2-4.5,4.67-4.5,4.67a72.13,72.13,0,0,1,3.57-8.51c-2.58,3.63-4.4,2.62-4.4,2.62A13.7,13.7,0,0,0,708,511c-1.57,1.78-3,.77-3,.77a3.18,3.18,0,0,1,2.1-2.84,458.19,458.19,0,0,1-16.7-46.38c-4.67-16.16-2.8-19.43-2.8-19.43.54,12.07,21.21,63.21,21.21,63.21,4,1.36,4.5,2.87,4.5,2.87-3.33,0-2.58,1.12-2.58,1.12a10.68,10.68,0,0,1,4.92,2.77c-4.42-.63-3.42,1.26-3.42,1.26,4.89.3,6,1.33,6.14,2a.45.45,0,0,1-.48.53c-5.5-.27-2.68,2.38-2.68,2.38,8.24-2.06,10.85,4.9,8.56,3.32-1.36-.93-3.63-1.14-5.26-1.16a2.13,2.13,0,0,0-2.14,2.59c.19.7.71,1.21,2,1,3.09-.58,9.49.33,9,1.42s-7.75,1.08-6.58,1.66,6.58-1.66,11.25.34,3.23,4.5,3.23,4.5c-3-2.92-11.92-1.74-11.92-1.74a1.61,1.61,0,0,0,1.27,1.82C737.83,536.33,735.67,540.58,735.67,540.58Zm6.83,12.73c.12-3-2.62-5.37-2.62-5.37s-3.76-4.38,2.62-.63S742.38,556.31,742.5,553.31Zm5-5a1,1,0,0,1-1.76.4,22.75,22.75,0,0,1-2.28-3.2c-.94-1.75,1.06-3.25,2.62-.75C747.1,546.41,747.67,547.4,747.48,548.3Z" transform="translate(-445.5 -121.26)"/><path class="cls-3" d="M670.77,451.93v0s0,0,0,0,0,0,0,0Z" transform="translate(-445.5 -121.26)"/><path class="cls-2" d="M686,542.32c-2.74-5.72-4.12-11.89-5.78-18-3.87-14.16-7.35-28.4-8-43.1-.12-2.53-.44-5.05-.71-7.58l-.81-12.27c-.09-4.21.11-7.74-.36-11.92a45.59,45.59,0,0,1-.41-6c.34-8.81-.68-17.67,0-26.47a56.33,56.33,0,0,1,.93-6.78c-.91-2.87,1.6-7-3.53-8.74Q664.91,409.21,663,417c-1.58,6.63-2.9,13.29-3.88,20-3.81,26.13-4,52.51-3.45,78.86.28,14,13.22,27.43,27.54,29.31C685.5,545.47,687.5,545.57,686,542.32Zm-13.05-37c3.34.42.23,3.17-1.92,1.67C671,507,669.58,504.92,672.91,505.33Zm-3.33,2.75c2.17.34,6.09,4.5,3.67,4.59s-4.67-2.34-4.67-2.34C667.59,509,667.42,507.75,669.58,508.08Zm-1.7,4.07c.7-1.82,7.46,3.88,8.07,6.47C676.39,520.48,665.46,518.39,667.88,512.15Zm-.35,6.08c2.42,1.79,7.55,5.79,9.22,5.92,2.42.18,1,3.27-.79,3-1.46-.2-7.47-4.3-9.76-6.33l0-.05-.21-.24,0,0C664.51,518.67,666.49,517.46,667.53,518.23Zm5.38,14.27c-4.33-3.67-6.33-5.17-6.66-6.25a1,1,0,0,1,.83-1.25s8.41,5.67,11,6.42S677.24,536.17,672.91,532.5Z" transform="translate(-445.5 -121.26)"/><path class="cls-2" d="M766.8,533.55c-5.31-7.09-10.66-14.15-15.86-21.31-13.15-18.1-22.79-38.21-33-58-2.39-4.62-5.09-9.26-6.41-14.41a26.74,26.74,0,0,0-2.39-5.9,44.39,44.39,0,0,1-3.79-11.7c-.65-1.75-1.29-3.5-1.94-5.26l-4.08-11.08c-4.14,3.3-5.46,6.94-4.78,11.08a17.16,17.16,0,0,0,.86,3.2c.88,2.38,1,5,1.67,7.48a367,367,0,0,0,44.17,98.22c5.49,8.56,11.59,14.95,22.78,13,1.62-.29,3.84.89,4.69-1.26C769.36,536,767.74,534.8,766.8,533.55Zm-39.3-36.93c.56-1.62,4.44-1.68,4.5,0a1.63,1.63,0,0,1-1.57,1.76S726.94,498.25,727.5,496.62Zm3.86,7.31c-.18-1.18-.06-2.89,2.26-2.55,2.81.4,1.46,3.26-.5,3.75A1.44,1.44,0,0,1,731.36,503.93Zm3,4.63c-.29-.13-.93-4.15,2.94-3.39S737.81,510.19,734.31,508.56Zm3,3s-1.2-2.6,1.68-2.33,3.82,3.71,3.45,4.27S738.81,513.62,737.31,511.56Zm2.75,2.82s3.44,3,6.25,3-1.19,3.06-4.06,1.93S737.12,514.31,740.06,514.38Zm2.92,8.18s-.42-2.68,1.9-1.31,1.18,1.82,5.37,2S744.58,529.19,743,522.56Zm7.58,8.5c-3.41-.57-4.13-2.07-3.29-3.18a.89.89,0,0,1,1.27-.11c.86.7,2.74,1.3,5.77,1.42C758.66,529.35,754.57,531.73,750.56,531.06Z" transform="translate(-445.5 -121.26)"/><path class="cls-4" d="M820.37,409.9c-9.63-3.45-19.16-7.15-28.72-10.78Q755,385.19,718.41,371.26c-1.85-.71-4.12-2.5-4.94,1.23a20.74,20.74,0,0,1-1.26,5.75,3.19,3.19,0,0,0,2,4.4c.47.14.94.26,1.36.43q28.3,11,56.66,21.91c14.5,5.56,29.09,10.85,43.5,16.6,5.56,2.22,7-1.32,8.71-5C826.26,412.56,823.81,411.13,820.37,409.9Zm-21.45,1.43c-1.34,2.88-2.34-.21-2.34-.21s-.33-3,.67-3.16S800.25,408.46,798.92,411.33Zm6.87,3.54c-3.83-.91-5.82-6.09-5.58-6.54.87-1.63,3.29.29,4.87,2.63S809.62,415.79,805.79,414.87Zm3.83,1.17c-.1-.13-.25-2.58,1.38-2.29s1.92,1.63,2.58,2.29S812.08,419,809.62,416Z" transform="translate(-445.5 -121.26)"/><path class="cls-4" d="M624.64,334.56a8,8,0,0,1-2.69-.12c-15.84-5.94-31.65-12-47.47-18-10.68-4-21.35-8.09-32.06-12-2.45-.91-5.21-1.38-7,1.22a6,6,0,0,0-.12,7.2c1.32,1.89,3.49,2.56,5.49,3.33,23.88,9.17,47.73,18.4,71.68,27.4C624.91,348.26,625,348.07,624.64,334.56Zm-80.42-19.9s-.66-2.69.44-2.88,3,.69,2.81,2.22S544.78,315.84,544.22,314.66Zm3.78.72s-.31-2.41,1-2,2.19,1.18,2.13,2.15S548.52,316.92,548,315.38Zm5.5,2.43c-.53.13-2.43.72-2.34-.5,0-.18,1.06-2.31,1.93-1.65S554,317.69,553.5,317.81ZM607.71,339s.21-2.38,1.71-2,1.91,1.58,1.12,2S609.42,338.58,607.71,339Zm7.37,2.58c-1.54,0-3.71.54-4.62-.5a4.21,4.21,0,0,0,2-1.94c.7-1.43,2.62-1.64,3-.35S616.62,341.58,615.08,341.58Zm2.89,1.17c-.26.28-.95.07-1.45-.15a.65.65,0,0,1-.33-.87c.27-.58.75-1.35,1.35-1.27C618.5,340.58,618.4,342.29,618,342.75Z" transform="translate(-445.5 -121.26)"/><polygon class="cls-4" points="179.27 213.3 179.14 213.3 179.14 213.19 179.27 213.3"/><path class="cls-4" d="M646.63,309.31c1.78,10,3.49,19.27,6.43,28.27,3.92,12,13.11,18,24.1,21.5,3,.94,6.64,1.37,8,3.17,1.26,1.63.39,4.54.66,7.08.57,5.28,1.24,10.55,1.49,15.85.21,4.38-1.27,6.16-5.84,3.37A73.46,73.46,0,0,1,654,358.38c-6.36-12.56-9.74-26.12-11.25-40.15C642.37,314.78,643.18,312.15,646.63,309.31Z" transform="translate(-445.5 -121.26)"/><path class="cls-4" d="M656.42,300.6a11.41,11.41,0,0,1,1,2.92c.51,12.1,7.37,19.53,17.88,24.1,4.49,1.95,6.82,5.13,7.29,9.84s.7,9.41,1.34,14.08c.77,5.65-1.88,5.46-6,4.1-14.39-4.78-23.11-14.24-25.2-29.52A61,61,0,0,0,650.32,314C648,307.36,650.75,303.58,656.42,300.6Z" transform="translate(-445.5 -121.26)"/><path class="cls-2" d="M639.85,318.28c3.05,16.3,5.63,32.19,13.7,46.17,6.75,11.68,15.58,21.74,28.32,27.54,4.13,2.45,5.29.58,6.07,2.51,1.07,2.69-.19,11.81-.55,15.62-.33,3.45-3.49.68-4.82-.22-9.6-6.48-17-15.21-23.77-24.41a112.51,112.51,0,0,1-22.12-58.17C636.39,324.09,636.55,323.36,639.85,318.28Z" transform="translate(-445.5 -121.26)"/><path class="cls-5" d="M709.92,428.24l-.39-.73a1.2,1.2,0,0,1,.17-.21A5.85,5.85,0,0,0,709.92,428.24Z" transform="translate(-445.5 -121.26)"/><path class="cls-4" d="M706.74,304.95c4.23,3,6.26,6.17,5.45,10.82-1.53,8.67-2.7,17.42-4.56,26-1.7,7.81-8.15,11.68-14.52,15.27-2.78,1.56-3.9-.23-4.18-2.85-.7-6.6-1.48-13.2-2.08-19.81-.2-2.19.09-4.69,2.52-5.47C700.71,325.26,705.09,316.41,706.74,304.95Z" transform="translate(-445.5 -121.26)"/><path class="cls-2" d="M712.18,360.42q-4.61,8.52-9.21,17.06a39.86,39.86,0,0,1-6.32,8.85c-1.05,1.09-2.21,1.75-3.72,1.1-2.89-1.24-1.74-6-1.9-9.21-.09-1.76-.35-3.51-.52-5.27-.38-3.74-1.33-7.72.36-10.51,1-1.67,3.69-2.53,6.05-3.74,11.84-6.07,15.49-16.89,15.9-29.38.11-3.16.29-10.05,1.31-13.58a.81.81,0,0,1,1.58.11C717.74,330.1,716.61,346.84,712.18,360.42Z" transform="translate(-445.5 -121.26)"/><path class="cls-4" d="M681.32,317.17c0,9.31-.77,9.64-7.9,6.07-8.82-4.41-12.59-12.07-14-21.22-.75-5,3.1-8.05,10.64-9.31,4.8-.8,7.2.9,8.18,5.82C679.6,305.27,680.77,312,681.32,317.17Z" transform="translate(-445.5 -121.26)"/><path class="cls-2" d="M661,393c-5.36-1.2-7.24-5.07-10.21-7.45a116.23,116.23,0,0,1-21.49-27.05c-6.26-11.09-2.7-20.63,4.5-30.91,2.53,20.54,8.57,38.9,19.38,55.53Z" transform="translate(-445.5 -121.26)"/><path class="cls-2" d="M688.49,325.63c-2.65.09-2.77-2.08-3-3.55-1-8.11-1.73-16.27-2.7-24.4-.33-2.76,1.16-3.56,3.34-3.64h1a23.08,23.08,0,0,1,7.08,1.38c2.52.88,5.24,1.4,9.05,5.84C706.32,307.48,697.82,325.3,688.49,325.63Z" transform="translate(-445.5 -121.26)"/><path class="cls-6" d="M712.44,367.77c-.07,1.14-.14,2.27-.22,3.4a20,20,0,0,0-2.25,8.45c-4.1,10.34-8.15,20.72-18.17,29,.09-6-.17-9,.39-16,.16-2,2-1.14,4.75-4.48a32.85,32.85,0,0,1,4.12-3.47c.78-.63,1.24-1.57,2-2.24,1.35-1.2,2-3,3.06-4.41C708.51,374.83,708.93,370.35,712.44,367.77Z" transform="translate(-445.5 -121.26)"/><path class="cls-7" d="M618.86,323.07a6.32,6.32,0,0,1,6.24-8.52c2.51.18,3,2.16,2.34,6.73-.35,2.53.31,4.93.6,7.35a6.32,6.32,0,0,1-.55,3.3c-.55,1.25-.66,2.95-2.85,2.52l.12.11c-1.13-3.12-3.72-5.48-4.67-8.69a7.16,7.16,0,0,0-.59-1.43A11.49,11.49,0,0,1,618.86,323.07Z" transform="translate(-445.5 -121.26)"/><path class="cls-7" d="M638.83,273.94c2.37,2.62.36,5.2-.28,7.65-.73,2.8-2.22,5.39-3.07,8.16s-1.43,5.87-5.19,4.38c-3.1-1.23-1-3.08-.31-4.81a21.38,21.38,0,0,1,1.17-2.6C633.56,282.38,634.4,277.08,638.83,273.94Z" transform="translate(-445.5 -121.26)"/><path class="cls-8" d="M644.93,299.12c-.54,3.08,1,6.63-1.64,9.37L640,312a1.27,1.27,0,0,1-2.12-.48c-1.48-4.36-.15-8.59.56-12.53C638.71,297.45,642.73,294.34,644.93,299.12Z" transform="translate(-445.5 -121.26)"/><path class="cls-9" d="M637.67,295.49c-.39-5,1.27-9.54,3.53-13.9.73-1.41,1.77-2.06,3.32-1.36s.94,1.83.83,3c-.33,3.65-.55,7.31-.81,11C642.42,295.47,640,295.31,637.67,295.49Z" transform="translate(-445.5 -121.26)"/><path class="cls-10" d="M630.44,327.17q-3-9.43,3.42-13.3a1.77,1.77,0,0,1,2.54.87c.84,2.22-.86,4.09-2.08,6C633,322.9,631.73,325,630.44,327.17Z" transform="translate(-445.5 -121.26)"/><path class="cls-11" d="M629.46,286.19a77.27,77.27,0,0,1-8.27,13.56c-1.37-1.41-.84-3-.32-4.5,1-4,3.79-6.81,6.35-9.76C628.14,284.43,629.26,284.22,629.46,286.19Z" transform="translate(-445.5 -121.26)"/><path class="cls-7" d="M617.46,306.1a31.61,31.61,0,0,1-1,15.33C615.63,316.24,614.93,311.07,617.46,306.1Z" transform="translate(-445.5 -121.26)"/><path class="cls-5" d="M709.92,428.24l-.39-.73a1.2,1.2,0,0,1,.17-.21A5.85,5.85,0,0,0,709.92,428.24Z" transform="translate(-445.5 -121.26)"/><path class="cls-7" d="M635.33,303.82c-1.83,8.24-1.83,8.24-6.73,9.34-1.45-5.1.44-9.65,2.37-14.14.55-1.28.68-3.44,2.88-3.13,2.41.35,1.31,2.43,1.48,3.79a31.32,31.32,0,0,1,0,4.12Z" transform="translate(-445.5 -121.26)"/><path class="cls-12" d="M620.57,311.92c-1.54-1.81.15-3.68.45-5.52a1.66,1.66,0,0,1,.16-.51c1.41-2.7,2.82-5.4,4.25-8.09.55-1,1.07-2.33,2.57-1.81,1.78.62.68,1.88.43,2.91-.81,3.23-1.88,6.42-2.39,9.69-.42,2.71-1.92,3.58-4.05,3.84A1.59,1.59,0,0,1,620.57,311.92Z" transform="translate(-445.5 -121.26)"/><path class="cls-2" d="M767.4,514.19a67.05,67.05,0,0,0-4.8-8.82c-17.55-25.86-37.45-50.18-51.34-78.43l-4.14-7.56,2.41,8.13a1.2,1.2,0,0,1,.17-.21,5.85,5.85,0,0,0,.22.94q1.08,3.59,2.14,7.17c1.78,3.94,3.41,8,5.37,11.79,9.46,18.58,19.78,36.69,30.21,54.73a35.49,35.49,0,0,0,16.71,15.26c1.27.55,2.6,1.37,3.79.07S767.82,515.08,767.4,514.19Zm-12.85-8.07a1.55,1.55,0,0,1-1.42-2.11c.24-.53.77-.93,1.87-.76C755,503.25,758.18,506.28,754.55,506.12Zm3,3.92a1.5,1.5,0,0,1-1.44-2.4c.43-.49,1.17-.71,2.4.11C760.22,508.85,759,509.84,757.6,510Z" transform="translate(-445.5 -121.26)"/></g><g id="Layer_6" data-name="Layer 6"><path class="cls-2" d="M666.2,520.84l-.08-.08a3,3,0,0,1-.8-.92l.61.69,0,0,.21.24Z" transform="translate(-445.5 -121.26)"/></g><g id="Layer_3" data-name="Layer 3"><path class="cls-13" d="M927,122.76V328.6a313.88,313.88,0,0,1-2.28,38c-.11.93-.24,1.86-.36,2.79,0,.2,0,.4-.08.59-.09.74-.19,1.47-.31,2.2-.46,3.37-1,6.69-1.6,10-.07.44-.15.87-.23,1.31-.16.8-.29,1.6-.45,2.4s-.34,1.79-.51,2.69l-.45,2.22-.24,1.15c-.15.71-.3,1.44-.46,2.15-.54,2.37-1.07,4.71-1.61,7l-.58,2.32-.52,2q-1.53,5.88-3.27,11.61c-.29,1-.59,1.94-.9,2.92l-.6,1.88c-.2.63-.4,1.24-.61,1.86-.37,1.09-.73,2.17-1.1,3.25s-.68,2-1,3c-.47,1.28-.93,2.56-1.39,3.81-.36,1-.73,2-1.11,3l-.19.5c-.43,1.14-.87,2.25-1.32,3.36s-.87,2.17-1.31,3.2c0,.15-.12.28-.18.42-.4,1-.8,2-1.25,3s-.76,1.75-1.13,2.62l-.66,1.49c-.48,1.07-1,2.11-1.44,3.15s-.9,2-1.36,2.93l-1,2.12c-.29.63-.6,1.25-.91,1.87-.63,1.33-1.31,2.64-2,4q-2.52,5-5.19,9.77l-2,3.57-.12.21c-1.42,2.47-2.86,4.92-4.33,7.33-.71,1.2-1.46,2.4-2.18,3.54-.11.16-.2.32-.3.47-.55.89-1.12,1.78-1.69,2.66l-.65,1c-.65,1-1.31,2-2,3l-.13.18c-.65,1-1.31,2-2,3l-.45.67q-2.25,3.29-4.54,6.46l-.31.43c-.8,1.07-1.54,2.14-2.31,3.19s-1.66,2.23-2.5,3.32c-1.52,2-3.06,4-4.61,6l-.81,1q-1.09,1.39-2.22,2.76L854,526.61l-.57.69c-.8.94-1.6,1.87-2.41,2.8q-2.82,3.32-5.72,6.53c-.75.85-1.52,1.69-2.29,2.51s-1.47,1.6-2.22,2.4q-3,3.2-5.93,6.24-2.76,2.82-5.53,5.59c-.92.91-1.84,1.82-2.76,2.71s-1.85,1.78-2.79,2.66l-2.28,2.12c-.68.65-1.36,1.28-2,1.91a449.24,449.24,0,0,1-61.76,47.47c-.86.55-1.72,1.1-2.57,1.6q-6.43,4.06-12.47,7.63l-2.41,1.4-2.36,1.37-2.33,1.34-2.23,1.29c-8.34,4.68-15.9,8.59-22.38,11.76l-1.6.8c-10.64,5.15-18.12,8.22-21,9.35l-.42.17-.61.24-.14,0h-.08l-.23-.09-.21,0-1.07-.42-.54-.23c-.87-.34-2-.8-3.37-1.38l-.46-.18c-1.76-.8-3.89-1.67-6.33-2.77l-1.39-.61a442.25,442.25,0,0,1-39.75-20.6c-.8-.44-1.6-.92-2.35-1.38a474,474,0,0,1-44.78-30l-2.63-2c-1-.75-2-1.51-2.94-2.29l-2.81-2.21c-6.19-4.92-12.43-10.15-18.64-15.69L558.08,566q-2.31-2.05-4.59-4.2l-1.67-1.57L550,558.54l-2-1.94c-1.12-1.07-2.23-2.17-3.33-3.27-.85-.79-1.69-1.66-2.52-2.5l-.24-.26c-.84-.83-1.67-1.67-2.5-2.51-.66-.68-1.32-1.36-2-2l-2-2.06-.13-.15-2.1-2.25q-3.36-3.6-6.66-7.36c-.68-.79-1.36-1.54-2.05-2.34-.57-.65-1.12-1.29-1.66-1.94q-1-1.2-2-2.4-4.28-5.1-8.39-10.48c-.76-1-1.5-1.93-2.24-2.92-1.89-2.47-3.73-5-5.57-7.55-.55-.8-1.12-1.59-1.68-2.39-.13-.16-.24-.34-.36-.5-.59-.86-1.19-1.7-1.77-2.56-.94-1.38-1.89-2.77-2.81-4.17-.74-1.09-1.47-2.2-2.19-3.31a1,1,0,0,0-.15-.24l-2.22-3.48-.22-.36c-.7-1.14-1.41-2.27-2.1-3.4s-1.49-2.46-2.21-3.71-1.43-2.39-2.13-3.67q-4.61-8-8.77-16.46c-.35-.69-.69-1.38-1-2.09-.22-.44-.44-.88-.65-1.35-.43-.87-.8-1.74-1.25-2.63a25.91,25.91,0,0,1-1.15-2.47l-.23-.48c-.27-.58-.53-1.16-.81-1.75l-.26-.57c-.27-.59-.52-1.19-.8-1.78q-1.44-3.25-2.79-6.57c-.42-1-.8-2-1.23-3.08-.1-.25-.21-.52-.31-.79-.4-1-.8-2-1.16-3s-.69-1.82-1-2.74l-.24-.65c-.17-.44-.33-.91-.49-1.35q-1-2.7-1.9-5.44c-.21-.6-.4-1.2-.6-1.8-.26-.8-.51-1.54-.75-2.32-.14-.41-.27-.8-.4-1.22-.25-.8-.49-1.59-.75-2.39-.31-1-.61-2.06-.92-3.11-.19-.64-.39-1.28-.57-1.95-.37-1.29-.74-2.58-1.09-3.89-.19-.68-.37-1.35-.55-2-.13-.5-.27-1-.4-1.51-.32-1.22-.62-2.45-.92-3.7-.18-.7-.34-1.4-.52-2.11-.07-.28-.13-.56-.19-.85-.37-1.55-.72-3.11-1.07-4.69-.26-1.16-.5-2.33-.74-3.5-.13-.71-.29-1.43-.42-2.14s-.32-1.59-.48-2.45a1.86,1.86,0,0,0-.09-.47c-.16-.8-.3-1.64-.45-2.48s-.32-1.84-.48-2.77-.29-1.8-.45-2.71q-.57-3.7-1.07-7.47c-.17-1.23-.33-2.47-.48-3.71A312.7,312.7,0,0,1,447,328.58V122.76Z" transform="translate(-445.5 -121.26)"/></g></svg>